<?xml version="1.0" standalone="no"?>
<!DOCTYPE svg PUBLIC "-//W3C//DTD SVG 1.1//EN" "http://www.w3.org/Graphics/SVG/1.1/DTD/svg11.dtd" >
<svg xmlns="http://www.w3.org/2000/svg" xmlns:xlink="http://www.w3.org/1999/xlink" version="1.1">
<metadata></metadata>
<defs>
<font id="matryoshkaregular" horiz-adv-x="1014" >
<font-face units-per-em="2048" ascent="1638" descent="-410" />
<missing-glyph horiz-adv-x="508" />
<glyph horiz-adv-x="0" />
<glyph unicode="&#xd;" horiz-adv-x="508" />
<glyph unicode=" "  horiz-adv-x="508" />
<glyph unicode="&#x09;" horiz-adv-x="508" />
<glyph unicode="&#xa0;" horiz-adv-x="508" />
<glyph unicode="!" horiz-adv-x="482" d="M41 1268q20 15 72 134q44 8 170 16q70 -13 85 -256q31 -46 46 -504q-42 -81 -52 -82l6 -8q-4 -12 -117 -39q-22 0 -46 -12h-13q-22 0 -59 181q-66 208 -92 570zM74 1261q0 -217 124 -713v-4q9 0 72 71q-64 163 -144 728h-6q0 -8 -46 -82zM157 210v20q20 13 59 92 q22 15 144 30q38 0 52 -111q7 0 7 -5q-24 -143 -85 -143q-36 -5 -59 -5h-46q0 -25 -13 -25q-18 16 -52 142q-7 0 -7 5zM190 230q26 -98 26 -111h7q0 16 26 91q-24 0 -26 66h-7q0 -7 -26 -46zM236 114h6q125 0 125 30q0 19 19 71q-118 0 -118 -40q0 -4 -32 -61zM264 556 q85 13 85 47q13 0 13 24h-7q-65 0 -65 -32q-26 -15 -26 -39z" />
<glyph unicode="&#x22;" horiz-adv-x="672" d="M14 1160q26 38 52 194q119 33 182 33q52 -10 52 -39q0 -159 -130 -383q-10 0 -65 -91h-7q-84 227 -84 286zM40 1147q19 -55 65 -208l26 26q-39 68 -59 240h-13q0 -16 -19 -58zM351 1198q0 86 52 169q7 0 7 -6l45 6h13q182 0 182 -32v-26q0 -89 -110 -325q-22 0 -78 -91 h-7q-52 0 -52 98q-39 186 -52 207zM377 1211q59 -220 59 -272h26q0 27 39 71q-23 35 -85 286l-13 6q-26 -79 -26 -91z" />
<glyph unicode="#" horiz-adv-x="1544" d="M28 485v11q103 98 206 98l27 -6l32 22q0 37 11 54q-5 0 -5 5l-27 -5h-33q-46 0 -65 16h-16q-22 11 -22 65v60q0 11 -10 11l-17 -11v5q46 43 152 168q119 0 119 38q49 148 65 217h-16l43 54l16 -11q110 99 163 125q108 0 108 -60q-92 -296 -92 -368q119 -22 276 -22 q0 -5 6 -5q62 226 87 260h5l11 -6q124 125 135 125q6 0 16 -6q6 0 17 6q70 0 70 -38q-14 -35 -54 -217q-22 -46 -43 -135h5q58 0 81 5q244 0 244 -54q-11 -81 -11 -135q0 -18 -81 -82l-11 -16l-54 6h-43q-77 0 -136 10q-21 -5 -43 -5l-27 5q-27 -80 -27 -103h5 q211 0 211 -37v-6q-32 -189 -70 -189q-42 -60 -98 -60h-5q0 11 -5 11q-43 0 -152 -6l-27 -113l5 -27q-66 -65 -76 -65l11 -17v-5q0 -11 -16 -11q-77 27 -206 49q6 119 16 168h-5q-10 -6 -16 -6l-6 11q6 0 6 6q-54 20 -174 32l-48 -119l-109 -130l-162 65l-6 54 q44 155 55 168v5q-165 0 -174 33q-11 35 -11 49v32l6 27h-11zM61 393q75 52 75 146h-5q-70 -41 -70 -48v-98zM98 377q31 0 152 -11q33 34 33 49h-71q-27 0 -81 5l-33 -38v-5zM147 832q16 -27 16 -71v-43l-5 -11h5q11 6 17 6v-6q8 0 65 54l-6 38q6 77 6 130q-83 -95 -98 -97z M185 133l11 -5q92 112 92 173l22 92q-92 -90 -92 -124zM212 117q46 -16 114 -33l60 87q-63 18 -98 38l-76 -87v-5zM212 686q25 0 125 10q0 -5 5 -5q35 60 71 60v5h-11q-85 -11 -146 -11l-33 -27l5 -11q0 -11 -16 -11v-10zM321 599q59 0 59 60q8 1 22 65q-81 -68 -81 -98v-27 zM402 989h76q65 249 119 347v5q-119 -83 -119 -92q-17 -88 -76 -260zM488 323l11 -6h27q64 0 152 -21h5q34 17 87 65q-186 16 -265 32q-6 -14 -17 -70zM553 599h22q108 0 228 -11l27 60q-33 0 -249 43q-28 -72 -28 -92zM597 713q203 -33 227 -33l38 11q11 -5 16 -5l65 70h-5 q-311 16 -330 16q-11 -30 -11 -59zM705 106q90 -5 157 -27q0 8 54 65v5q-57 17 -97 17h-54q-4 0 -60 -55v-5zM705 149q55 32 76 125l27 70h-5q-87 -55 -87 -75q-11 -46 -11 -120zM841 588h37q10 1 60 136q-80 -59 -97 -136zM981 312h6q38 0 76 11l21 -6q46 6 76 6 q18 -11 27 -11q0 13 22 16v11q-160 11 -173 11h-44q0 -11 -11 -38zM981 946h38q15 11 119 308q-113 -68 -113 -151q-33 -92 -44 -157zM1128 691q206 -5 281 -5q11 -6 17 -6l32 38v6q-155 10 -320 16q-10 -35 -10 -49z" />
<glyph unicode="$" horiz-adv-x="803" d="M28 951q0 132 87 215q61 85 116 99v62q0 27 62 74q41 17 66 17h20q71 0 71 -62q4 -43 4 -70q120 -22 120 -58v-4q0 -39 -50 -124q0 -17 -66 -25v-165q116 0 244 -125q41 -49 41 -152t-99 -286q-63 -68 -161 -103q16 -86 16 -99q-47 -130 -53 -133l-108 -12l-4 8v4 q98 18 112 25q0 12 20 75q-91 -7 -91 -25q-8 -40 -53 -83q-11 0 -25 161h-9l5 21q-8 4 -13 4q-23 0 -58 4q-56 -8 -120 -8h-4l-20 -4l-17 107q5 25 12 25q0 -4 5 -4q20 26 53 79q48 16 145 33q-12 45 -21 252q-8 0 -8 8v4l4 21h-8q-107 27 -170 116q-45 85 -45 128zM69 889 q34 -88 128 -141q8 0 63 -29q21 43 45 71q-161 24 -198 66q0 5 -38 37v-4zM78 289q0 -56 8 -91h8q0 9 41 75q-16 33 -16 58h-4q-6 -1 -37 -42zM115 203h4q13 0 116 8q56 -4 70 -4q0 6 25 62h-4q-65 -17 -104 -17q-20 0 -78 8q0 -3 -29 -53v-4zM193 1058q11 11 58 29l21 33v4 q-79 -23 -79 -66zM197 1034q0 -37 50 -79v99l-8 -4q0 8 -13 8q-23 -16 -29 -16v-8zM239 1327l4 -8v-46h4q8 0 46 9v103q-5 0 -54 -58zM264 992q0 -62 33 -62l16 -4q-12 131 -12 198q-7 0 -37 -49q0 -17 4 -46zM268 699q16 -126 29 -277q45 9 45 12q0 28 -20 343 q-25 -24 -54 -78zM309 178q17 -112 17 -149h4l37 83q-21 0 -21 115l-4 21h-4q0 -3 -16 -45q4 -8 4 -13q-17 -6 -17 -12zM454 695l4 -29q0 -18 4 -191q4 -8 4 -12q32 0 79 112v12q0 85 -83 112h-8v-4zM454 715q95 0 116 -128q-1 -32 -29 -83h4q34 38 41 79q0 115 -74 153 q-7 0 -58 25v-46zM454 1141l4 -21v-24q31 8 58 8q8 21 8 37q-8 0 -8 -4l-29 4h-33zM474 306q5 -28 5 -46h8q165 88 165 141q-48 -40 -178 -91v-4z" />
<glyph unicode="%" horiz-adv-x="1523" d="M49 1002q0 53 57 177q0 144 219 223q49 11 62 11q126 0 224 -161q20 -60 20 -104v-42q0 -130 -156 -281q-39 -45 -187 -67h-15q-130 0 -214 135q-10 66 -10 109zM75 1002q0 -112 47 -146q74 -67 156 -67q151 27 151 47h-6q-82 -11 -104 -11q-151 0 -218 198q-5 27 -5 62 h-5q-16 -70 -16 -83zM205 227q52 189 140 297q168 166 281 322q468 507 505 530l26 6q2 -34 98 -125l6 -26q-19 -99 -52 -167h-11l11 26h-6q-223 -223 -223 -239q-125 -176 -182 -249q-121 -114 -213 -255q-219 -182 -234 -219q0 -7 -26 -26h-11q-109 89 -109 125zM226 222 q4 0 78 -78q31 90 31 99q-40 18 -83 57q0 -12 -26 -78zM241 1127q26 -146 125 -146t99 99q5 0 5 5q0 89 -130 172q-69 0 -99 -115v-15zM340 165l37 31v-5q230 189 265 270q229 254 229 271q101 162 218 270q125 127 125 135q10 27 10 42q-327 -298 -390 -395 q-30 -30 -67 -94q-130 -124 -167 -203q-53 -67 -104 -109q-42 -55 -135 -151q-21 -56 -21 -62zM387 1262q114 -89 114 -146h6v16q0 130 -110 130h-10zM803 305q0 128 94 286q34 68 88 94q86 36 135 36h26q151 0 276 -171q31 -67 31 -115v-36q0 -5 -5 -5l5 -11v-10 q-45 -198 -83 -198q-165 -161 -364 -161q-169 0 -198 260q-5 8 -5 31zM834 290q31 -245 177 -245q130 0 265 99h-5q-85 -42 -156 -42q-200 0 -276 188v5h-5v-5zM954 394q70 -162 208 -162h26q41 77 41 110q0 164 -130 239h-5q-140 -31 -140 -187zM1157 576q109 -96 109 -240 q0 -13 -11 -46q23 17 63 98q0 87 -135 182z" />
<glyph unicode="&#x26;" horiz-adv-x="1027" d="M49 379q0 109 103 301q5 18 38 75q-51 15 -103 141q-14 49 -14 99q0 128 84 258q77 179 273 179l108 -19q55 0 108 -94q28 -55 28 -127v-28q0 -86 -79 -202q-27 -19 -90 -104q-53 -44 -75 -66q129 -91 306 -235q50 184 65 184l29 -5q15 9 23 9l24 -4q9 4 14 4q4 0 28 -18 q-14 -146 -61 -254q132 -63 132 -94q-65 -179 -123 -179l-4 9v5l42 56v10q-13 0 -108 37q-28 -39 -28 -51q89 -59 89 -66q0 -10 -14 -10q-33 15 -90 57q-50 -132 -150 -188q-126 -52 -179 -52h-47q-263 0 -320 259zM82 374q0 -228 155 -311q94 -23 146 -23h38q90 0 216 85 q36 36 56 70v10q-25 -24 -108 -43q0 -14 -174 -28q-117 15 -230 122q-71 117 -71 226q5 26 5 38v4h-5q-28 -53 -28 -150zM101 985q0 -117 108 -221v-5q4 0 28 33q-113 130 -113 264v61h-4q-19 -80 -19 -132zM256 1098q0 -57 75 -212h5q113 117 113 156v37q0 94 -94 198 l-10 5q-89 -107 -89 -184zM284 520q0 -165 75 -165q62 -28 132 -28q68 0 113 33q-212 155 -273 216q-9 5 -14 5q-33 -39 -33 -57v-4zM308 604q20 0 28 66q-28 -30 -28 -66zM341 595q31 -33 282 -226q21 8 37 33q-66 80 -150 122q-65 36 -155 127q0 -2 -14 -51v-5zM364 1296 q46 0 113 -156q9 -18 9 -51v-29q62 56 62 132q0 83 -109 122q-6 5 -33 5q-42 -10 -42 -23z" />
<glyph unicode="'" horiz-adv-x="346" d="M49 1263q0 75 46 149q6 0 6 -6l40 6h11q161 0 161 -29v-23q0 -79 -98 -287q-19 0 -68 -80h-6q-46 0 -46 86q-35 165 -46 184zM72 1274q52 -195 52 -241h23q0 24 34 63q-20 31 -75 253l-11 6q-23 -70 -23 -81z" />
<glyph unicode="(" horiz-adv-x="734" d="M63 580q0 387 107 512q62 194 230 376q99 78 161 83h5q52 0 107 -137q-45 -113 -147 -180q-219 -246 -219 -449q-5 -43 -5 -49q0 -189 107 -371q173 -145 264 -180q14 -22 14 -44q-19 -52 -29 -112q5 0 5 -5q-11 -4 -44 -73q-39 -49 -49 -49q-77 24 -136 49l-20 -5 q-50 0 -239 219q-112 189 -112 415zM102 566q0 -219 112 -396q23 -13 112 -136q204 -103 244 -103l49 73q-32 0 -175 88q-126 45 -249 234q-88 162 -88 288h-5v-48zM356 1044h5q46 102 214 263q0 9 30 54h-5q-184 -123 -235 -283q0 -9 -9 -30v-4z" />
<glyph unicode=")" horiz-adv-x="831" d="M49 1387q0 28 5 97q-5 28 -5 41q107 82 148 82q50 0 169 -77q156 -53 281 -240q123 -186 123 -460q0 -175 -128 -496q-96 -220 -199 -312q-54 -88 -200 -138l-5 -10l-20 5l-26 -5l-5 10q15 17 15 26q-81 121 -81 133q74 133 122 133q174 145 174 163q41 35 102 235 q31 154 31 200q-50 253 -189 404q-104 115 -281 194q-31 0 -31 15zM75 1403q86 88 86 168h-5q-73 -51 -81 -51v-117zM100 1392q158 -89 215 -128q194 -201 220 -327h5v11q-40 210 -123 301q-155 116 -276 179v10h-5q-5 0 -36 -46zM146 38l72 -108h10q0 9 41 67 q-19 9 -87 107q-36 -59 -36 -66zM243 -85h5q116 43 179 138v5q-82 -69 -143 -77z" />
<glyph unicode="*" horiz-adv-x="1024" d="M98 1002q51 133 182 133q16 5 74 5v6q-5 95 -16 117q4 26 70 91q165 -12 165 -27q0 -25 16 -176h59q25 0 53 -5l27 5q107 0 107 -75v-21q0 -70 -48 -112v-11q10 -1 10 -10l-10 -6h-32v-5l69 -80q-63 -115 -96 -150q-5 0 -5 6q-7 0 -80 -59h-11q-6 0 -6 5l-10 -5 q-11 0 -11 11q11 13 11 21q-51 93 -123 176l-117 -176l5 -11q0 -10 -11 -10h-10q-68 16 -177 64v16l171 -54l48 70q-107 32 -160 32q-35 -43 -48 -43l-5 11v10q50 46 117 161v5q-140 -11 -176 -21q-11 13 -11 21l6 11q-14 80 -27 80zM125 1023l16 -96q58 48 58 165zM178 922 l11 5q165 0 165 32v5h-80q-21 0 -69 11q-27 -45 -27 -53zM360 1263q16 -19 16 -74v-38q1 -11 10 -11h22q10 0 10 16q0 14 -5 139l-11 6q-26 -38 -42 -38zM509 863q123 -167 123 -182q7 0 32 32q-99 147 -134 177q-10 -25 -21 -27zM648 660q100 62 107 96l5 21 q-23 -3 -112 -112v-5zM691 975q35 -37 58 -37l32 42q-77 6 -85 11l-5 -11v-5z" />
<glyph unicode="+" d="M49 566q30 78 49 93q33 80 87 80h55l62 6v62q0 16 -13 37q81 191 118 191q54 12 98 12q105 0 105 -105l25 -178q27 0 135 -7q98 7 118 7q44 0 55 -192q-15 -34 -31 -49q6 -12 6 -18q0 -56 -203 -56q-11 0 -37 -12l6 -31v-80q0 -14 6 -25q-57 -142 -129 -142 q-99 -12 -105 -12q-72 0 -93 37v6q0 65 -12 204l-18 -13h-7l7 13v6h-19q-48 0 -86 -6q-78 12 -111 12q-12 -6 -19 -6q-12 49 -24 179h-7q0 -19 -12 -19q0 6 -6 6zM92 609l19 -178h6q23 95 31 98l-7 74v80q-6 0 -49 -74zM135 431q6 -7 93 -13q58 6 111 6q0 -6 6 -6 q0 12 55 99h-6l-61 -6l-167 18q0 -27 -31 -98zM320 856q6 -42 6 -68v-37l74 6v7q-12 157 -24 191h-6q0 -24 -50 -99zM376 412q0 -24 12 -166h6q31 64 31 67q-12 131 -12 167h-6q-31 -53 -31 -68zM388 184q53 -6 80 -6q83 12 105 12h25q31 20 31 68q-222 0 -222 -31 q0 -10 -19 -31v-12zM678 474q210 0 210 61q12 0 12 13q-67 -13 -142 -13h-6l-74 7v-68z" />
<glyph unicode="," horiz-adv-x="557" d="M91 53q78 127 122 127q12 0 21 5q229 0 229 -58l5 -32v-37q0 -5 -5 -5q5 -11 5 -16q0 -173 -170 -345q-59 -27 -85 -27q-48 14 -48 27q16 129 38 180h-27q-58 0 -58 27q-11 84 -27 154zM118 37q21 -100 21 -117h5q48 51 48 80q-16 32 -16 116q-58 -70 -58 -79zM155 -91 v-5h58q11 0 37 58q-26 0 -42 11q-17 -64 -53 -64zM208 -234q7 0 42 64l-5 10q32 74 32 101v5h-5q-64 -128 -64 -180zM208 -303q83 0 159 127v6h-5q-57 -80 -101 -80l-27 5q-26 -36 -26 -58z" />
<glyph unicode="-" horiz-adv-x="670" d="M28 462q9 101 9 122l-4 23q82 151 165 151l48 -6q213 12 270 12l19 12q80 -12 80 -35q-4 -58 -9 -58l4 -29q0 -146 -23 -146q-70 -104 -105 -104q-4 0 -4 6l-10 -6q-55 0 -75 -6q-46 6 -90 6h-34l-28 6q-9 -6 -14 -6q-194 0 -194 40q-5 12 -5 18zM52 450q55 87 61 87 l-5 24q0 33 10 116q-62 -64 -62 -70v-11q0 -50 -4 -146zM75 444l33 -5q11 0 19 5q135 -11 299 -11q75 11 80 11q0 -5 5 -5l42 75q-47 -6 -71 -6h-99q-37 0 -66 -5l-185 11q-44 -64 -57 -64v-6z" />
<glyph unicode="." horiz-adv-x="557" d="M84 107q13 113 13 137l-6 26q0 22 117 130h84q15 0 26 -7q11 7 26 7h98q13 0 13 -20q0 -48 6 -149q0 -117 -84 -189q-286 0 -286 46q-7 12 -7 19zM117 94q76 97 84 98l-6 26q0 37 13 130q-85 -72 -85 -78v-13q0 -55 -6 -163zM149 88l46 -7q14 0 26 7q55 -7 91 -7h52 q13 0 45 78h-84q-33 0 -98 7q-60 -72 -78 -72v-6z" />
<glyph unicode="/" horiz-adv-x="775" d="M-7 122q0 86 131 320q128 283 241 496q28 57 132 232q103 172 103 208q0 23 34 28q128 -44 128 -80q0 -107 -27 -204h-4q0 4 -3 4q-53 -137 -177 -380q-83 -245 -177 -360q-66 -95 -213 -372h-6q-89 64 -159 100zM8 122q6 0 16 -8h3v4q-16 3 -16 12h3l116 -72l16 44 q-110 95 -119 108h-3q0 -6 -16 -76h3l-3 -8v-4zM170 74l52 88l-3 8v4q25 32 67 120h12q73 134 165 272q68 178 232 540q55 114 55 192q-58 -89 -196 -440q0 -25 -207 -380q-74 -133 -153 -320q-9 0 -24 -84zM640 962h3q0 7 18 40v4q-4 -1 -21 -40v-4z" />
<glyph unicode="0" horiz-adv-x="985" d="M35 614q0 146 83 422q114 232 123 243q61 84 158 84q32 18 112 27q78 0 242 -149q76 -86 126 -300q47 -225 47 -354v-19q0 -196 -155 -350q-59 -44 -133 -114q-97 -76 -195 -76h-40q-182 0 -314 278q-54 144 -54 308zM60 610q0 -321 191 -495q83 -60 152 -60h40 q101 0 198 87h-3q-61 -15 -119 -15h-4q-266 0 -357 236q-47 119 -47 350q0 94 54 353v4h-4q-65 -147 -75 -274q-26 -98 -26 -178v-8zM291 789q0 -101 58 -331q74 -110 144 -110q87 0 87 26q58 89 58 202q0 411 -199 502l-72 23q-52 -102 -54 -171q-22 -62 -22 -96v-45z M385 1124q79 0 173 -92q116 -162 116 -460q0 -76 -47 -194q73 51 101 148q25 98 25 164q0 151 -76 297q-137 175 -202 175h-7q-63 0 -76 -27z" />
<glyph unicode="1" horiz-adv-x="713" d="M63 1037q84 159 142 180q149 105 185 136q0 9 119 16q71 -45 71 -218q0 -300 33 -833v-136q0 -45 -82 -147h-109q-46 0 -70 11q-11 -6 -17 -6q-21 0 -54 398l-6 54v447q-5 0 -5 5l-98 -43q0 5 -6 5q0 -8 -16 -16h-5q-10 1 -66 131q-16 0 -16 16zM96 1037q51 -113 60 -114 q0 17 49 98v10q-49 99 -49 109q-7 0 -60 -103zM199 950h6q64 0 119 130q-73 -76 -92 -81q-21 -25 -33 -49zM292 972q14 -38 21 -180q0 -6 -5 -6q0 -5 5 -16q-5 -134 -5 -212v-28q22 -318 44 -430h5q0 13 33 49l-11 115q5 156 5 201q-16 331 -16 643h-11q-1 -34 -65 -136z M368 62q38 0 43 -5l33 5q57 -5 65 -5q60 74 60 81l-27 6h-5q-93 -11 -104 -11q-10 5 -16 5q-13 -29 -49 -76z" />
<glyph unicode="2" horiz-adv-x="887" d="M70 293q0 123 122 281q251 254 366 323q31 81 31 180q-37 80 -127 80q-85 0 -106 -117q-25 -37 -37 -37q-185 21 -185 32q0 4 -6 32q13 10 59 153q100 170 254 170q68 0 239 -80q116 -86 116 -286q0 -59 -42 -164q0 -91 -117 -207q-98 -71 -207 -122q-90 -86 -90 -153 l11 -6q461 -17 461 -42q11 -17 11 -27q0 -138 -53 -174q-48 -54 -90 -80l-53 5h-6q-524 27 -524 48q0 9 -11 27l5 10q-21 59 -21 154zM91 282l16 -116q7 0 58 58q-10 19 -10 42q0 171 90 318v6q-140 -149 -148 -287q0 -12 -6 -21zM123 118q172 -5 477 -32q21 5 42 5h11 l27 -5l63 74q-486 43 -525 43q-31 0 -95 -80v-5zM155 1051q96 -11 164 -11q0 5 27 53h-11q-90 0 -138 21q-19 -37 -42 -63zM393 1167h6q36 22 63 22q74 0 117 -32v5q-64 74 -117 74q-41 0 -69 -69zM505 611h5q95 46 159 138h-5z" />
<glyph unicode="3" d="M49 1184q99 143 99 149q36 16 88 16q6 0 6 -5l27 5h6q54 0 204 11q27 0 82 -5q53 5 116 5q6 0 17 6q60 -8 60 -50q0 -51 -121 -193q112 0 242 -170q61 -103 61 -193q0 -205 -105 -397q-88 -160 -242 -220q-94 -66 -209 -88q-6 -6 -45 -6h-44q-93 0 -93 72q-4 0 -28 49 q0 33 121 232q160 0 347 93q116 94 116 259q-27 66 -132 66h-17q-71 0 -286 -82q-97 110 -127 110v5q42 107 121 171q19 0 83 72h-5q-214 -28 -248 -28q0 6 -6 6q0 -17 -11 -17h-11q-11 1 -33 55q-33 37 -33 72zM82 1178q0 -15 28 -66q25 23 44 83q-11 16 -17 66h-5 q0 -7 -50 -83zM143 1101h5q273 33 336 50q0 5 33 33l-341 -11q0 -9 -33 -72zM198 170q5 0 33 -49q0 8 55 104v83h-11q0 -13 -77 -138zM231 859q6 0 88 -72q7 0 33 50q-80 88 -88 88q-33 -48 -33 -66zM247 88h88q138 8 375 176l55 77v6q-114 -155 -430 -155l-27 6 q-36 -73 -61 -110zM363 787q154 72 253 72q62 0 127 -28q0 49 -77 116h-11q-82 -5 -231 -88q-61 -36 -61 -72z" />
<glyph unicode="4" horiz-adv-x="978" d="M56 586q2 106 104 463q42 284 65 284q32 71 136 71h11q39 -5 44 -5q29 5 55 5l5 -11q-71 -261 -125 -502h5q51 0 196 22q-16 238 -16 344q20 6 71 120q16 4 22 22q54 -6 82 -6h5q20 0 49 6q55 -9 55 -104l81 -1102q-46 -158 -92 -158l11 27l-55 -5h-82l-27 -6 q-29 0 -87 502l-17 -11h-11l11 38h-5q-179 -10 -240 -10q-109 5 -164 5l-27 -5q-27 5 -27 10l-11 -5h-6zM83 624h11l27 71l-5 27l120 518q5 0 33 93q-47 0 -55 -136q-51 -279 -87 -333q-44 -230 -44 -240zM105 597q6 0 6 -6q14 5 65 11q76 -5 98 -5q61 0 295 11 q23 47 43 120l-469 -55q0 -16 -38 -76zM558 1246l5 -11q12 -316 17 -316q68 5 76 5q-27 204 -27 344v54q0 11 -11 11q-26 -42 -60 -87zM585 591q22 -86 71 -463q5 0 5 -11h6q0 8 38 93l-60 409q0 12 6 21q-6 38 -6 60v33q-9 0 -49 -125q-5 0 -11 -17zM672 84h6q123 6 152 6 q44 74 44 98v5q-18 -11 -60 -16q-53 7 -87 16q-27 -60 -55 -109z" />
<glyph unicode="5" d="M49 259q8 0 102 107l396 -23h22q142 70 142 97q28 53 28 124q-75 102 -153 102q-46 22 -226 45q-191 0 -237 -34l-29 34q6 457 6 554l11 6q0 -6 6 -6q68 102 136 102q0 6 5 6q42 0 63 -6q105 6 186 6h147q24 0 62 -6h29q0 -52 -12 -136l12 -22q0 -11 -74 -125l-28 6 q-78 0 -294 -6q-6 -104 -6 -130h6q32 12 124 12q207 0 391 -193q107 -137 107 -249q0 -174 -192 -322q-155 -181 -509 -181q-204 12 -204 85q0 77 -17 153zM72 242q11 -69 17 -153h11q40 86 40 96v17q0 30 -6 96q-4 0 -62 -56zM117 717q44 15 68 62q-29 30 -29 204 q0 60 46 328q-79 -59 -79 -68v-102q0 -135 -6 -424zM123 72q35 -11 118 -23q310 0 447 113h-5l-57 -11l-40 6l-169 -29q-6 0 -6 6l-51 -6q-93 0 -192 29q-28 -60 -45 -79v-6zM185 728q29 6 181 11q328 -47 328 -84l17 -12h5v6q-70 136 -198 136q-35 0 -294 -29h-11 q-8 0 -28 -28zM349 1113h5q132 0 266 11h34q45 69 45 79h-339q-6 -81 -11 -90z" />
<glyph unicode="6" d="M70 511v171q36 300 104 420q89 171 217 222q102 25 114 42q41 10 67 10q18 0 26 -5q28 5 47 5h52v-129l10 -37q-44 -134 -114 -134q-153 -51 -228 -140q-62 -89 -62 -321q0 -21 10 -78q137 176 321 176q128 0 265 -119q62 -105 62 -192v-5q0 -203 -264 -290 q-108 -93 -275 -93q-166 0 -305 233q-47 128 -47 264zM91 589q0 -201 67 -363q139 -181 264 -181q122 0 207 57l-26 -5h-36q-346 0 -471 518h-5v-26zM277 760h5q0 151 119 253q79 55 233 104q0 16 37 83h-5q-86 -10 -104 -10v5q-130 -40 -181 -119l-68 -99q-22 -18 -36 -165 v-52zM438 418q0 -102 62 -130q0 -11 88 -31q140 28 140 57q0 106 -130 176l-20 6q-130 0 -130 -52q0 -9 -10 -26zM541 537q154 0 213 -160l10 -42q31 16 31 67q0 117 -176 166q-4 0 -78 -26v-5z" />
<glyph unicode="7" horiz-adv-x="908" d="M21 1254q72 77 81 121q17 12 41 12q62 0 445 11l23 -6q6 6 93 12q150 0 150 -41v-11q-69 -312 -162 -544l-208 -596q-25 -60 -81 -122q-25 -69 -52 -69q0 8 -139 29q-17 0 -17 12v46q2 42 17 58l-6 23q0 52 110 347q104 211 104 231l-6 12q47 121 105 318h-18 q-98 -11 -110 -11h-110q-13 0 -23 6q-10 -6 -23 -6h-64q-68 0 -133 -18l-11 18q0 6 6 6l-6 40v93zM44 1230q6 -108 12 -133h6q13 34 52 81v81l-6 58q-64 -68 -64 -87zM96 1103h6l41 6q5 0 5 -6l29 6h52q20 0 29 6l35 -6h98q99 11 110 11h23l12 -5l46 69h-5q-77 -11 -336 -17 q-38 6 -75 6q-42 0 -70 -70zM212 73q49 -11 127 -11h23q24 40 24 63l-134 12q0 -8 -40 -64zM224 143q21 0 69 167q104 249 168 463q116 321 127 365q-46 -30 -116 -295l-208 -544q0 -12 -40 -156z" />
<glyph unicode="8" d="M35 342q0 268 217 445q30 0 44 22q-50 0 -120 179v16q0 207 130 310q153 76 180 76q9 -5 21 -5q14 0 44 5q80 0 228 -87q98 -63 98 -233v-6q0 -142 -120 -244v-6q90 0 201 -271q16 -69 16 -103v-38q0 -251 -173 -315q-105 -33 -174 -65q-18 0 -82 -22q-203 23 -309 71 q-168 115 -168 179q-20 32 -33 92zM78 342q0 -94 125 -201q127 -87 288 -87q0 -8 60 -11q34 11 54 11v6q-170 20 -228 65q0 9 -136 103q-76 61 -76 228q0 126 82 272h-6q-163 -179 -163 -332v-54zM209 1004q0 -78 114 -184h5q45 32 65 32v6q-130 64 -130 250q0 63 43 168 q-97 -109 -97 -272zM361 391q23 -120 114 -120q68 -32 125 -32h49q70 67 70 163q0 176 -201 288h-5q-95 0 -130 -82q-22 -67 -22 -114v-103zM410 1075q0 -104 217 -125q16 28 22 98q0 83 -136 179h-11q-66 -45 -92 -152zM551 1249q141 -101 141 -185v-38l-5 -65 q70 40 70 152h6q-67 141 -158 141h-16zM589 684q102 -47 157 -190l17 -92q-7 -62 -38 -141h5q54 0 81 135v6q-10 135 -38 184q-35 72 -162 104h-22v-6z" />
<glyph unicode="9" horiz-adv-x="880" d="M56 931q0 132 133 338q93 128 277 128q260 0 353 -302q21 -56 21 -133v-46q0 -203 -123 -508q-56 -217 -169 -302q-183 -92 -313 -92h-25q-57 0 -57 51q-14 0 -36 92l-10 -5h-10q-10 0 -10 11q118 143 184 143q83 10 164 56q102 36 102 272q-9 -5 -15 -5q0 5 -5 5 q0 -13 -149 -26q-204 0 -286 185q-26 61 -26 138zM92 926q0 -219 220 -277q53 -5 62 -5q108 15 133 15l10 -5q43 9 72 52l36 40h-6q-117 -56 -215 -56q-51 0 -205 108q-92 102 -92 174h-10zM138 168q26 -83 26 -93h10l82 77q0 10 -31 108q-28 -13 -87 -92zM174 50l5 -10 l10 5h21q156 0 343 112q92 118 92 159q-120 -128 -328 -179h-15l-26 5q-46 -71 -102 -87v-5zM256 1038q0 -100 133 -128q36 -5 41 -5q69 0 148 57q0 10 6 10q-41 98 -113 128q-53 26 -159 46q-56 -40 -56 -87v-21zM363 1177q131 0 241 -128v5q-15 153 -154 153 q-17 0 -87 -25v-5zM558 475q82 123 82 241q-67 -61 -67 -72q0 -69 -15 -169z" />
<glyph unicode=":" horiz-adv-x="557" d="M34 1010v5q20 20 45 62q30 2 79 97q0 28 170 50l22 -11l34 6q43 0 57 -204q0 -9 11 -34q-51 -63 -51 -84q-53 -79 -68 -79q-11 0 -11 11l6 11h-17q-103 -17 -209 -22l-6 11v51l-17 135h-5q-22 -17 -34 -17zM96 1049q23 -137 23 -175v-11l11 -17q23 0 45 85 q-22 50 -22 175q-8 0 -57 -57zM107 428v11q7 2 113 136q19 11 34 11h57q164 0 164 -68q11 -93 28 -175q-76 -119 -90 -124h-23q-15 0 -34 11l-164 -28q-10 -6 -22 -6q-13 0 -46 203v17q-17 0 -17 12zM147 411l34 -175q51 64 51 90q-12 0 -17 45l5 11q-5 100 -11 136 q-8 0 -62 -79v-28zM175 846h6q107 17 141 17h17q15 5 51 73q-92 -17 -186 -17q-29 -67 -29 -73zM220 236l136 17h57l39 62q-61 -12 -130 -12h-62q-40 -37 -40 -67z" />
<glyph unicode=";" horiz-adv-x="557" d="M28 936q119 163 121 224q22 11 63 11h115q103 0 103 -109q0 -22 12 -126q-18 0 -58 -115q6 -10 6 -23l-17 -11q-40 5 -64 5l-22 -5q-12 5 -18 5l-115 -17q0 12 -11 12l-12 -6q-43 0 -74 143q-6 0 -6 6l-12 -6q-11 0 -11 12zM74 947q37 -120 46 -120q52 75 52 92 q0 34 -18 166h-5q0 -23 -58 -103v-29q-17 0 -17 -6zM98 304q77 120 118 120q54 6 98 6h34q103 -12 103 -98q5 -43 10 -57q0 -174 -118 -287q-14 -12 -73 -29h-30q-10 0 -10 11v18q26 35 54 138l-9 5h-20q-114 18 -123 18q0 -14 -24 -18l-5 12v92zM122 292l5 -29v-63 q14 5 40 63v64l5 28q-8 0 -50 -63zM143 815q11 -1 11 -11q65 11 127 17l28 -6q15 0 58 92q-136 -7 -178 -23q-10 -9 -46 -69zM147 172q136 -14 147 -23q30 48 30 63h-25q-106 0 -118 28q-18 -46 -34 -68zM260 -12h5q94 0 147 161q-74 -92 -113 -92h-15q0 -18 -24 -69z" />
<glyph unicode="&#x3c;" horiz-adv-x="1042" d="M28 464q12 37 12 56q-6 0 -12 12q24 0 32 48q28 106 28 132q-4 8 -4 12q19 10 80 64q174 130 576 384q81 48 104 76l72 40q26 0 40 -152q0 -77 -36 -128q-43 -116 -52 -120q-53 -43 -160 -88q-161 -67 -220 -124q-20 -3 -20 -12q167 -122 320 -192q15 0 136 -88 q60 -19 60 -52q4 0 4 -4q-1 -11 -16 -20q-24 -100 -44 -140q0 -24 -8 -24q8 -13 8 -20q-40 -43 -40 -56q-27 -54 -44 -68h-4q0 9 -112 76q-4 9 -268 144q-121 64 -196 124q-141 136 -204 164h-4q-17 -44 -24 -44h-4zM64 524q57 -18 224 -172q99 -76 352 -196 q116 -66 124 -76q76 -47 84 -48q44 73 44 104q-5 0 -44 40q-56 36 -180 92l-316 228q-61 25 -216 164v-12l-32 28zM396 704q10 0 52 -28l132 84q235 105 284 148l-4 8q16 50 40 96h-4q-31 -37 -224 -128z" />
<glyph unicode="=" d="M84 311q13 84 13 102l-6 19q114 126 232 126l67 -5q299 10 378 10l27 10q113 -10 113 -29q-5 -49 -13 -49l6 -24q0 -121 -33 -121q-98 -87 -146 -87q-7 0 -7 5l-13 -5q-77 0 -106 -5q-64 5 -127 5h-46l-40 5q-13 -5 -20 -5q-272 0 -272 34q-7 9 -7 14zM112 716 q13 84 13 102l-6 19q114 126 232 126l67 -5q299 10 378 10l27 10q113 -10 113 -29q-5 -49 -13 -49l6 -24q0 -121 -33 -121q-98 -87 -146 -87q-7 0 -7 5l-13 -5q-77 0 -106 -5q-64 5 -127 5h-46l-40 5q-13 -5 -20 -5q-272 0 -272 34q-7 9 -7 14zM117 302q78 72 87 72l-7 19 q0 28 13 97q-86 -53 -86 -58v-9q0 -41 -7 -121zM145 707q78 72 87 72l-7 19q0 28 13 97q-86 -53 -86 -58v-9q0 -41 -7 -121zM150 297l47 -5q15 0 27 5q188 -10 418 -10q107 10 113 10q0 -5 7 -5l60 63q-67 -5 -100 -5h-140q-51 0 -93 -5l-259 10q-61 -53 -80 -53v-5z M178 702l47 -5q15 0 27 5q188 -10 418 -10q107 10 113 10q0 -5 7 -5l60 63q-67 -5 -100 -5h-140q-51 0 -93 -5l-259 10q-61 -53 -80 -53v-5z" />
<glyph unicode="&#x3e;" d="M91 265v4l16 24l-4 8q24 13 76 104q0 19 68 52q32 47 168 120q62 32 180 140q-228 148 -404 220q-51 24 -68 24q-4 -28 -12 -28q-6 0 -20 28v12q20 27 20 104l-12 20v8q15 40 36 68q21 61 92 176h4q70 -42 84 -64q258 -202 392 -300q145 -119 224 -204q0 -47 -108 -240 q-15 0 -92 -80q-111 -67 -356 -296q-148 -112 -184 -112q-20 28 -20 48h-4v-12q8 -30 8 -36l-8 -4q-16 30 -52 212v8l-20 -12zM123 273q23 0 56 -168q9 0 52 104q-6 0 -16 48q-8 0 -28 116h-8q0 -6 -56 -92v-8zM123 1105l4 -40v-20q60 93 60 116l4 20l-4 8q4 6 20 80 q-26 -33 -84 -164zM131 981h4q228 -85 424 -216l60 -36l48 40q-234 186 -376 264q-66 67 -100 76q-60 -107 -60 -128zM187 69h4q115 54 372 300q155 111 196 152q89 81 132 200h-4q-115 -126 -208 -188q-148 -131 -240 -204q-119 -56 -200 -148q-3 -31 -52 -104v-8z" />
<glyph unicode="?" horiz-adv-x="845" d="M28 1094v68q0 101 139 206q65 45 209 64q195 0 324 -142q78 -93 78 -245v-25q0 -154 -185 -324q-68 -70 -68 -245v-21q-12 -9 -60 -96l-18 -4q-11 0 -71 8q-38 0 -81 -11h-4q-29 12 -39 167q0 227 202 419q36 59 36 139q0 69 -75 138q-71 47 -120 50q-29 -26 -29 -67 q19 -89 53 -89q-27 -100 -92 -164q-7 0 -7 7q-52 -23 -85 -49h-8q-7 0 -10 35q-64 63 -89 181zM46 1112q27 -129 85 -185q32 55 32 64q-99 112 -99 210v4q0 8 3 14v3h-3q-15 -42 -15 -53v-53q0 -4 -3 -4zM152 917h4q89 38 89 60q25 38 25 46q-50 -40 -89 -46 q-29 -57 -29 -60zM280 487q9 -119 25 -125l50 61v7q-11 9 -14 117q12 95 28 139q18 61 114 177q103 112 103 175q11 23 11 60v7q0 106 -203 178l-25 3q-18 0 -50 -28q58 0 150 -82q49 -80 49 -124q0 -106 -64 -181q-174 -169 -174 -384zM295 174q4 1 74 107q157 -22 167 -22 q14 -19 14 -32v-3q0 -58 11 -107q-51 -117 -68 -117q-153 18 -159 18q0 -7 -8 -7q-10 0 -21 124q-10 19 -10 39zM312 160q18 -61 18 -92q25 30 25 46q3 93 3 110q-20 -20 -46 -64zM344 362h22q19 0 85 -7l35 61h-3q-19 0 -61 -4q-34 4 -39 7l-39 -53v-4zM348 46 q70 -7 142 -21l35 71h-3q-18 0 -43 -4h-106q0 -2 -25 -46z" />
<glyph unicode="@" horiz-adv-x="1383" d="M42 567v4q0 408 172 579q82 125 240 173q180 60 244 60h12q128 0 284 -86q145 -111 212 -203q88 -147 88 -342q0 -126 -64 -256q-67 -90 -224 -90q-117 0 -216 86q-30 -45 -36 -45q-4 8 -4 11q-95 -74 -136 -78q-23 0 -28 -4q-152 0 -228 101q-11 23 -40 136q-8 0 -12 63 q0 147 216 245q113 45 180 45h12q63 -8 128 -68q33 -52 112 -222q37 -45 48 -45q18 -7 40 -7q40 0 56 34l32 64q-52 186 -168 289q-57 71 -164 98q-52 15 -144 33l-40 -3h-60q-188 -11 -188 -45q-87 -60 -124 -173q-16 -50 -24 -143q35 -200 92 -271l96 -139 q99 -101 280 -101q31 16 248 34q21 10 44 11h4q7 -41 12 -124q-21 -56 -80 -139q0 -17 -156 -49h-88q-284 38 -284 68q-90 41 -236 229q-99 147 -108 270zM66 579q10 -119 100 -260q69 -94 180 -195q102 -79 220 -79q67 -19 120 -19h44q73 0 168 45q29 39 64 98h-4 q-171 -60 -308 -60q-69 0 -280 71q-192 109 -296 433v18h-4q-4 -47 -4 -52zM366 530q0 -51 80 -94q62 -30 100 -30h8v4q-30 0 -156 105q-8 0 -32 19v-4zM474 1161h4q32 8 76 8h88q128 0 284 -83q122 -109 140 -154q72 -113 72 -162h4v79q0 70 -60 181q-7 0 -80 79 q-89 63 -244 105q-95 19 -116 19h-8q-32 0 -160 -68v-4zM490 684q0 -73 56 -90l28 -4q56 0 56 34v4q0 115 -68 172q-72 -42 -72 -97v-19zM578 812q64 -51 76 -120q0 -10 8 -49h4q24 46 24 94q0 69 -76 101q-31 -16 -36 -26zM606 425h28q15 0 48 15q0 7 -8 7q-37 -15 -68 -15 v-7zM686 455h8v3h-8v-3zM742 500q28 14 28 30q40 6 40 56v4h-8zM798 515q104 -83 220 -83q110 12 156 45l8 12h-4q-82 -34 -164 -34q-91 0 -188 109q0 -11 -28 -49z" />
<glyph unicode="A" horiz-adv-x="1237" d="M49 137q60 250 76 343q52 174 64 243q10 0 56 198q11 0 32 138q28 78 44 194q15 0 60 56q6 0 64 53q12 0 12 -4l20 4q181 7 248 7h40q5 0 24 -30l-4 -7q9 -3 68 -142q68 -148 200 -545q48 -90 124 -333q-7 -23 -76 -175h4q8 -1 8 -8v-7l-4 -8q-74 -3 -108 -3h-4 q-84 0 -84 37q-15 0 -124 321q-3 3 -36 86q-237 -37 -320 -37h-28q-80 -318 -144 -389q-31 -51 -48 -52q-152 23 -152 37q-12 15 -12 23zM81 144q52 61 52 82v38l84 328q16 95 120 404q64 185 92 306q-96 -64 -96 -123q-32 -126 -96 -430q-104 -289 -104 -377 q-20 -53 -52 -209v-19zM109 122l104 -19q26 43 60 86v4h-4q-99 11 -112 15q-16 -34 -48 -75v-11zM417 544h8q78 0 300 41q0 10 32 41l36 48v4l-8 -4h-28q-40 0 -40 -11v-3h-20v11l-228 -23l-20 12zM429 1306h4v11h-4v-11zM501 831q16 0 160 15q-28 46 -76 153h-4 q-44 0 -44 -18zM549 1022h4q48 0 64 52l32 52q0 8 -8 8h-48l-20 3zM609 1014l72 -160v-4q70 4 88 4v3q-52 152 -92 254h-4q-16 -37 -60 -82l4 -7v-8h-8zM761 592q38 -59 156 -392v-4h8q0 18 32 60q-40 101 -128 422q-10 -8 -68 -86zM937 140q57 -7 80 -7h12q44 0 44 19 q0 6 48 108h-4q-103 -30 -144 -34q-36 -70 -36 -78v-8z" />
<glyph unicode="B" horiz-adv-x="1027" d="M62 202q13 409 29 711q0 89 13 272q0 2 -3 19q0 9 26 43q10 38 65 116l22 -3q18 0 133 16q252 -22 370 -61q184 -75 237 -195q16 -42 16 -45v-39q0 -34 -32 -127q-30 -31 -46 -64q-109 -57 -126 -72q49 -13 133 -94q42 -44 42 -91v-13q0 -267 -94 -311q-40 -14 -104 -94 q-143 -91 -266 -91q-85 -16 -146 -16h-16q-97 0 -237 32v4q7 0 7 6q-10 0 -23 97zM88 209q0 -24 13 -88q46 42 68 78v16q0 14 3 26q0 7 -3 7q16 439 32 1083q-52 -85 -77 -114q0 -6 3 -35q-13 -233 -20 -454q-6 -41 -9 -143l3 -29q-13 -248 -13 -347zM117 102 q191 -20 214 -20q230 23 286 46q129 58 129 81h-3q-69 -32 -156 -32h-152q-18 0 -45 3q-37 -16 -101 -16q-80 0 -110 13v-4q-22 -32 -62 -68v-3zM380 387q48 4 71 4h91q94 0 185 51q0 84 -192 101q-89 -10 -116 -10l-33 3q-6 -136 -6 -149zM390 553h9l130 13h13 q169 0 207 -98h7q13 38 13 52q0 60 -136 98q-74 13 -101 13q-84 0 -139 -10q-3 -49 -3 -68zM409 1123q10 -153 10 -236v-7q42 -10 159 -10q1 -6 6 -6q120 28 120 45v36q0 77 -78 140q-79 42 -214 42q0 3 -3 3v-7zM409 1146q15 0 42 3q126 -9 172 -29q62 -37 88 -91 q26 -64 26 -84h3q32 61 32 120q-57 141 -240 149q-120 -11 -120 -19q-3 -28 -3 -46v-3z" />
<glyph unicode="C" horiz-adv-x="1055" d="M49 456v31q0 206 131 469q38 134 250 319q130 96 258 96q0 6 149 19q135 -11 135 -58v-19q0 -44 5 -134q8 0 8 -12q-29 -49 -144 -138h-9q-205 0 -337 -108q-113 -119 -113 -226l-9 -73q23 -162 52 -162q0 -24 110 -65q77 -15 262 -27q36 15 92 15h57q44 0 44 -107 q4 -81 9 -92q0 -23 -197 -177q-263 0 -381 65q-122 33 -245 135q-127 138 -127 249zM88 464q0 -149 193 -288q189 -100 341 -127q127 -4 167 -7q39 17 148 119l13 15h-8q-192 -54 -302 -54h-13q-136 0 -307 96q-102 59 -166 281q-22 118 -22 180v46h-4q-40 -139 -40 -261z M438 910h5q55 79 171 119q103 27 227 38q23 18 66 62q-15 0 -140 15q-137 0 -245 -96q-72 -86 -84 -134v-4z" />
<glyph unicode="D" horiz-adv-x="971" d="M76 724q0 25 23 369l-12 -14h-3v3q17 54 17 70q17 0 23 36q69 172 87 202h6l8 -8h3q8 0 17 8q16 0 31 -4q41 4 73 4q61 0 183 -63q58 -19 124 -98q251 -200 251 -524v-22q0 -74 -23 -245q0 -34 -73 -183q-5 0 -37 -44q-99 -124 -155 -142q-116 -44 -129 -44 q-43 0 -155 -4q-83 4 -124 4q-110 15 -110 40q0 7 -5 37q-12 352 -12 380v40q-8 124 -8 202zM96 709q8 -72 8 -274q15 -328 20 -363h3q49 74 67 125q-3 216 -5 216q2 75 2 135v344q0 63 12 322v99h-3q-43 -115 -85 -180q3 -53 3 -58zM152 65q36 -11 110 -11h8q4 0 45 -7h48 q48 7 54 7h50q65 0 195 73q50 48 87 95q68 78 101 180q0 7 9 36v4h-3q-20 -62 -144 -168q-56 -72 -191 -110q-107 -22 -163 -22h-74q-37 0 -81 18q0 -17 -51 -95zM355 764l14 -326v-102h20q78 0 180 62q45 30 45 66q14 47 14 99v84q0 221 -189 318q-52 22 -79 22v-26 q0 -9 -5 -128v-69zM360 1013q159 0 259 -180q21 -40 37 -146q3 -19 3 -37v-91q0 -21 -6 -55q31 44 31 168v19q0 251 -141 355q0 13 -92 54q-5 0 -43 11q-37 -7 -45 -7v-36q0 -19 -3 -55z" />
<glyph unicode="E" horiz-adv-x="1132" d="M77 1215q54 81 124 146l18 11q476 7 581 25q80 0 164 -11h80q18 -8 18 -36v-33q0 -47 -11 -88q11 0 11 -7q-3 -39 -95 -153q0 -18 -14 -18q-222 -25 -498 -44q0 -4 -25 -7q3 -92 3 -135v-14h4q140 33 425 47h18q84 0 84 -29q0 -19 7 -113q0 -69 -43 -109q0 -9 -44 -55 q-5 -44 -44 -44q-114 -3 -152 -10q-183 -4 -229 -4l-26 4v-124q1 -8 7 -8h197q12 0 18 4l22 -4h87q226 -10 243 -18q19 0 19 -171q7 -1 7 -7v-7q-39 -54 -91 -102q7 -2 7 -8v-3q0 -30 -200 -40q0 -4 -7 -4q-557 -7 -581 -7q-7 -4 -15 -4q-12 0 -33 233v146l-18 302 q0 95 -3 382v4h-4v-11h-7l3 26v54q0 19 -7 44zM102 1226l15 -124q4 -313 4 -404q7 -46 18 -284v-142q0 -49 22 -190q48 73 54 91q-11 3 -11 30v294q0 66 7 84l-7 62q7 58 7 146q-14 206 -14 422q7 70 7 99v18h-3q-48 -39 -99 -102zM175 60h73q79 0 116 8l7 -4q7 4 15 4v-4 q7 4 11 4q92 0 334 3q148 13 160 22q34 16 95 88v3h-66q-26 0 -40 8q-39 -8 -363 -30h-109q-20 0 -87 8q-91 -7 -91 -15q-31 -43 -55 -95zM422 1124q8 -53 8 -58v-44q33 17 381 40q28 6 117 18h25l73 102h-4q-28 0 -51 4q-199 -21 -469 -29q-80 -6 -80 -15v-18zM433 556 q351 14 415 22l-4 18q19 0 69 84q13 0 18 14v4q-109 -11 -451 -58q-29 0 -47 -4v-80z" />
<glyph unicode="F" horiz-adv-x="1041" d="M82 1162q0 21 161 205q130 -12 152 -12l209 12q25 0 108 -4q184 20 235 20h4q31 -14 31 -68q-5 -98 -5 -108q-100 -109 -100 -121h-8q-5 0 -13 4q-84 -12 -139 -12h-274v-124q346 4 478 16q20 -6 39 -28l-4 -20v-4q0 -147 -70 -209l-52 -69h-4q-25 0 -31 5q-56 -5 -91 -5 h-131q-55 0 -134 -12q-5 -193 -5 -285l-4 -8q4 -7 4 -16v-24q0 -19 -4 -40q9 -66 26 -116q-95 -136 -95 -149q-9 0 -9 4q-45 -4 -183 -8l-17 8q0 -8 -9 -8h-4q-39 0 -39 60v157q0 4 4 4l-4 8q0 4 4 4l-4 8v4q0 4 4 4l-4 8v56q0 4 4 4l-4 8v24q0 4 4 4l-4 8v105q0 4 4 4 q-4 8 -4 12q0 38 8 88q-5 59 -8 64l4 8q0 4 -4 4l4 21v8q0 14 -4 36q0 4 4 4q0 4 -4 12l8 120q0 4 -4 4l4 20v61q0 94 -13 208v24q-17 0 -17 12zM121 1142l18 -164q0 -74 -5 -338q0 -41 5 -64q-5 -83 -5 -152v-402q9 0 39 44q53 48 61 48q0 36 -4 89q0 156 17 490l-17 377 v64q0 19 4 41q-4 14 -4 36v12q0 32 4 84v4h-4q-6 -13 -109 -140v-29zM169 14l9 -4q19 0 95 8q9 -4 13 -4q9 4 13 4v-4l9 4h4q5 0 5 -4q34 0 74 76q7 0 21 29q-182 -11 -182 -49q-7 -1 -61 -56zM443 657q82 12 134 12h70q64 0 174 4q26 23 82 96v4q-19 -8 -460 -28v-88z M443 1106q8 0 8 -4l22 4h235q159 0 165 28q6 0 52 53v4l-30 4h-18q-155 8 -173 8h-22q-231 -15 -231 -24z" />
<glyph unicode="G" horiz-adv-x="1045" d="M70 603q0 125 52 274q16 135 221 372q133 115 303 115h118q33 0 33 -22q-8 -192 -33 -192q-43 -64 -96 -107h-7q-9 7 -15 7q-114 0 -281 -188q-59 -80 -59 -170v-55q0 -104 85 -226q100 -55 189 -55q13 -4 33 -4q64 0 114 92h-7q-77 -11 -218 -11l-33 -3q-41 12 -41 44 q-9 92 -18 92q69 152 99 152h104q45 0 111 -4l18 4q20 -4 30 -4q106 11 158 11q29 0 34 -85q0 -15 7 -122q0 -133 -70 -277q-84 -119 -255 -181q-98 -18 -125 -18q-194 0 -348 203q-103 179 -103 358zM100 607q0 -176 107 -358q148 -177 317 -177q89 0 229 70q90 70 104 96 h-4q-115 -93 -229 -93q-271 0 -395 200q-122 169 -122 343h-4q-3 -55 -3 -81zM365 913q165 167 288 167h19l70 88v4h-22q-100 0 -218 -81q-84 -68 -129 -159q0 -6 -8 -15v-4zM436 574q18 -69 18 -107q5 0 55 88l-3 15l3 7q-14 65 -14 78h-8q0 -15 -51 -81zM487 463 q204 7 222 15q19 -4 37 -4l29 63q-79 4 -118 4h-22q-13 0 -33 -4q-7 4 -11 4q-33 -4 -56 -4h-7q-15 -33 -41 -70v-4zM705 360h8q56 0 77 81q7 52 7 70h-7l-48 -111q-3 0 -37 -40z" />
<glyph unicode="H" horiz-adv-x="1125" d="M105 834l22 341q4 0 4 10q-4 6 -4 10q0 23 30 40q33 42 71 107h7q8 -1 8 -7l18 4h37q123 -7 123 -47v-57q0 -101 -4 -127q4 -75 8 -508q147 16 308 26v4l8 207l-8 187q0 218 23 218q77 83 89 83q121 10 130 10q41 0 41 -294l7 -318h-3l3 -6v-14q0 -97 -3 -120 q3 -70 3 -147v-91q0 -37 8 -120q-59 -90 -82 -90l-11 6q-98 -3 -145 -3v3l-8 -3h-11l-7 3l3 41v123l-3 34q-9 0 -15 -4q-49 4 -78 4h-8q-26 0 -29 -4q-26 4 -41 4h-30q-43 0 -138 -4v-80q0 -17 -3 -50q7 0 7 -10q-49 -90 -108 -90q-68 -4 -115 -4q-8 0 -41 4q-12 -7 -22 -7 q-26 0 -26 100q0 203 -15 636zM135 824q0 -110 11 -291q0 -91 4 -371l3 -34h8q22 46 48 84q0 6 -4 6q4 46 4 67v7q0 59 -4 124q11 142 15 337q-2 39 -7 221q4 211 7 308v3h-3q-12 -30 -64 -83l4 -24zM191 125h7q42 0 156 3l37 54v3q-18 0 -44 -3q-101 3 -123 6q0 -7 -33 -63 zM425 355h3q67 4 108 4h19q15 0 30 3q14 -3 29 -3h8q30 0 48 3q23 -3 52 -3h26q25 0 89 90q-37 -7 -74 -7h-59q-61 0 -171 -6q-93 3 -105 6q-3 -65 -3 -87zM756 1212q7 -35 7 -54q0 -120 4 -381q-4 -88 -4 -147q13 0 78 6q0 102 -11 572q0 4 4 34q-4 10 -4 40v3 q-62 -68 -74 -73zM785 359q0 -5 8 -80q0 -20 -4 -54l4 -23q-4 -21 -4 -47q5 0 60 60q5 0 14 13q-11 89 -11 191h-3q-28 -32 -64 -60zM823 158q134 0 145 17l33 43q-44 -3 -63 -3h-56z" />
<glyph unicode="I" horiz-adv-x="482" d="M70 1243q48 58 98 131l7 3q177 0 177 -52q36 -577 36 -718v-52q0 -85 -7 -203q3 -35 10 -53q-38 -94 -75 -124q-3 0 -10 10q-61 -7 -79 -7h-39l-33 -3q-3 6 -3 10q0 28 3 72q-33 434 -59 694q-6 67 -16 279q-8 0 -10 13zM99 1246q0 -147 50 -652q0 -36 26 -353h3l30 65 q-4 39 -4 56v236q-26 417 -26 560q-3 89 -3 170l3 7q-5 13 -10 13q0 -11 -69 -102zM178 195h39q102 6 102 16q36 59 36 66h-3q-33 -14 -79 -14h-46l-16 4q0 -13 -33 -72z" />
<glyph unicode="J" horiz-adv-x="824" d="M21 490q59 153 93 153l35 4q107 0 107 -25q0 -157 64 -228q33 -28 75 -28h3q104 17 104 39q0 37 7 192q-15 190 -25 584q-5 0 -11 10v4q41 60 82 146h7q88 0 150 7q17 -55 56 -545q4 -118 4 -199q0 -85 -28 -196l3 -18q-72 -183 -260 -309q-62 -18 -92 -18h-22 q-191 0 -302 182q-50 140 -50 245zM42 487q0 -190 96 -303q100 -103 257 -103q123 0 267 196q-112 -75 -185 -75q-7 -10 -86 -14q-65 0 -178 60q-114 79 -114 239q-9 92 -17 92q-40 -81 -40 -92zM498 1195q11 -91 25 -527q3 0 7 -100q-7 -74 -11 -156q72 67 72 324 q0 357 -29 559h-7q-27 -63 -57 -100z" />
<glyph unicode="K" horiz-adv-x="1153" d="M70 1214q0 8 108 204l20 -4q117 8 148 8h4q23 0 48 -360q12 -122 12 -160q155 179 192 212q139 138 212 256q24 24 32 24q39 -29 120 -136q16 -17 16 -32v-8q-11 -16 -120 -92q-102 -100 -104 -124q-56 -55 -56 -68q-13 0 -128 -124q-52 -43 -52 -48q125 -95 276 -180 q69 -49 204 -132q80 -89 128 -132q-20 -57 -92 -184l4 -20v-4q0 -8 -8 -8h-16l-264 172l-240 172q-58 34 -88 56h-4v-4q0 -64 -4 -124q12 -171 12 -184q0 -56 -28 -72q-32 -52 -44 -96q-25 -9 -52 -36l-4 8q6 0 12 16h-4q-69 -12 -128 -12h-28l-12 -8q-6 0 -16 16 q-36 458 -36 1212l-8 -4h-12zM102 1238q8 -13 8 -20q4 -237 8 -256q-4 -35 -4 -40q12 -800 36 -900q49 52 96 128q0 158 -60 864q-6 11 -16 88l12 20q-4 133 -12 236h-4q-28 -68 -64 -120zM174 18h8q152 9 152 24l48 80h-76q-34 0 -52 8q-36 -60 -80 -112zM422 538 q17 -19 156 -100q249 -187 400 -272q25 -24 44 -24q20 48 20 56l-180 144q-9 0 -248 168q-133 69 -192 112v-84z" />
<glyph unicode="L" horiz-adv-x="950" d="M83 1173q74 181 88 193q21 17 37 17q76 0 168 -24q16 0 33 -248q18 -77 52 -703q6 -14 29 -14h11q114 0 378 -41l7 -11v-31q0 -15 -11 -76q4 -6 4 -10q-8 -59 -77 -134q7 -1 7 -7q0 -12 -55 -14v3l4 7q-37 4 -55 4h-59q-78 0 -176 -4q-104 11 -191 11q-18 0 -44 -4 q-94 6 -95 17v11q15 0 15 14q0 173 -37 396l-29 531v96zM109 1159q0 -32 22 -489q0 -85 36 -345q8 -63 8 -138v-31h3q37 52 70 110q-4 57 -4 87v93q0 55 4 79q-4 34 -4 86v86q0 300 -47 590q-3 0 -15 51q-5 0 -44 -96q-3 -1 -26 -42q0 -30 -3 -41zM175 108h3q21 0 26 -4 l128 7l136 -10q92 3 169 3h73q21 0 73 -6q44 59 59 89l-7 -3h-4q-50 0 -70 -4q-413 24 -506 52q-9 -27 -80 -114v-10z" />
<glyph unicode="M" horiz-adv-x="1446" d="M77 975v41q0 194 30 194q71 119 88 125q80 34 155 34h11q27 0 107 -121q71 -115 189 -243q48 -54 129 -163h4q87 126 159 190q0 8 95 136q44 86 102 167q0 19 76 19h76q20 0 23 -68l-4 -27q11 -128 11 -159v-220q8 -85 8 -91v-144q-8 -55 -8 -57q0 -68 -4 -186 q4 -59 4 -87q-5 -64 -11 -64q4 -34 11 -42q0 -13 -53 -72q-30 -52 -30 -57q-4 0 -31 -8q0 8 -7 8q-48 -4 -53 -4q-87 0 -87 49q-12 0 -12 12q0 107 12 201v15q0 5 -8 61v94q0 6 8 61v83q0 14 3 35q-3 8 -11 121l-174 -144q-61 -81 -95 -110q-17 -53 -87 -95h-4 q-156 128 -156 163q-3 0 -60 87q-65 62 -65 76h-4v-76q0 -110 -11 -261q4 -27 4 -31q-12 -28 -12 -41q0 -8 4 -8l-4 -26v-31q0 -64 19 -95q-5 -28 -68 -121q6 0 12 -11v-4q0 -9 -114 -19q-22 -7 -99 -19q-5 0 -19 15l4 38v15q-42 570 -53 865zM107 971q0 -16 8 -84 q0 -36 4 -216q22 -174 22 -345q8 -24 8 -30q4 -121 4 -140q7 -24 7 -31q8 0 42 80q0 51 4 83q-4 119 -4 152q0 74 4 205q-8 412 -15 572l4 38q-4 8 -4 12q4 7 4 11l-80 -114q-8 -64 -8 -72v-121zM164 72h4q159 21 159 34q0 8 42 72h-4q-112 -7 -148 -7q-19 -47 -53 -95v-4z M414 827q0 -7 122 -148q52 -106 170 -193q39 33 65 75q-69 102 -182 209l-175 178v-121zM1055 842l12 8l15 -8l26 68q-10 -5 -53 -64v-4zM1078 152h4q3 19 60 72q-3 93 -3 102q0 72 3 402q-7 161 -7 175h-4q0 -24 -23 -50q0 4 -4 4q-15 -37 -18 -68q3 -96 3 -152v-76 q-7 -36 -7 -41v-114q7 -37 7 -42v-41l-7 -46q0 -32 -4 -121v-4zM1093 114q58 -11 65 -11q72 9 72 11l49 64v4h-15q-31 0 -50 4q-23 -4 -53 -4h-7l-12 8q-9 -10 -49 -68v-8z" />
<glyph unicode="N" horiz-adv-x="1188" d="M84 1128q59 129 92 214q14 15 48 18q20 -3 30 -3q101 7 132 7q203 -321 203 -325q83 -104 185 -269h4q7 46 14 162l-3 23q7 48 7 129q0 36 -4 151q-5 0 -11 11q52 107 111 129q8 0 15 4q143 -11 143 -19l4 -18v-89q0 -39 26 -346v-52q-5 -435 -11 -435q4 -19 4 -45v-14 l-4 -22l7 -23l-3 -7q3 -6 3 -15q-18 -47 -73 -147q-38 -4 -59 -4h-67q-71 0 -88 37q-6 37 -218 332q-54 63 -89 136l-84 166v4h-4q-8 -87 -8 -140v-37q6 -417 34 -417v-4q0 -11 -56 -106q8 -2 8 -8v-4q-1 -7 -37 -18h-8q0 11 -143 22q0 8 -19 8q-18 -12 -26 -12 q-14 0 -33 174q4 99 4 158v67q0 48 -22 490q3 63 3 130q-7 0 -7 7zM110 995q11 -269 26 -457l-4 -19q4 -43 4 -62l-4 -52q4 -19 4 -22q-8 -76 -8 -89q0 -11 19 -158q4 0 48 96l-4 25q0 27 7 244q-11 254 -11 336v44q0 46 11 380q0 5 -7 40h-4q0 -31 -73 -162v-52 q0 -55 -4 -92zM180 143q0 -13 147 -26q19 12 56 81h-52q-53 0 -107 11q-27 0 -37 -44q-6 0 -7 -18v-4zM394 862q78 -136 151 -280q190 -242 269 -398h8l26 59q-56 63 -144 214q-226 288 -258 402q-42 78 -48 103h-4v-100zM792 744q28 -58 67 -114l14 11l-3 26v63l14 180v104 q-7 108 -7 118v132q0 30 -7 67q-44 -48 -63 -81q7 -90 7 -137q0 -230 -22 -369zM840 165h118q40 0 67 78q3 0 11 14h-4q-170 -10 -170 -40q-22 -41 -22 -52z" />
<glyph unicode="O" horiz-adv-x="1069" d="M98 614q0 146 83 422q114 232 123 243q61 84 158 84q32 18 112 27q78 0 242 -149q76 -86 126 -300q47 -225 47 -354v-19q0 -196 -155 -350q-59 -44 -133 -114q-97 -76 -195 -76h-40q-182 0 -314 278q-54 144 -54 308zM123 610q0 -321 191 -495q83 -60 152 -60h40 q101 0 198 87h-3q-61 -15 -119 -15h-4q-266 0 -357 236q-47 119 -47 350q0 94 54 353v4h-4q-65 -147 -75 -274q-26 -98 -26 -178v-8zM354 789q0 -101 58 -331q74 -110 144 -110q87 0 87 26q58 89 58 202q0 411 -199 502l-72 23q-52 -102 -54 -171q-22 -62 -22 -96v-45z M448 1124q79 0 173 -92q116 -162 116 -460q0 -76 -47 -194q73 51 101 148q25 98 25 164q0 151 -76 297q-137 175 -202 175h-7q-63 0 -76 -27z" />
<glyph unicode="P" horiz-adv-x="964" d="M91 1141q11 0 42 72q61 159 73 160q3 0 10 -4q47 11 233 28q133 -5 249 -64q136 -115 176 -236q3 -2 6 -84q-16 -140 -45 -180q-68 -72 -134 -104q-87 -100 -211 -132l-57 -12q-6 4 -13 4v-4q-3 -55 -3 -68q4 -332 22 -332v-4q-35 -91 -92 -160h-4q-6 0 -6 12 q-137 -4 -169 -4q-12 4 -13 4q-6 -4 -10 -4q-22 0 -22 132q-6 145 -16 620v16l3 24q-9 110 -19 320zM110 1121q10 -192 19 -292q-3 -44 -3 -76q0 -92 13 -344q-3 -54 -3 -80q0 -30 12 -256h4q17 58 57 128q-3 54 -3 80v100l-13 696l7 232v4h-4q-19 -63 -86 -192zM164 65 q0 -4 4 -4q10 -8 19 -8q62 0 131 8q5 -4 13 -4q30 0 51 60q4 0 19 32v4l-32 -4h-102q-34 0 -51 16zM417 1109q7 -200 9 -200l83 -12q46 0 71 124v16q0 61 -115 76h-16zM420 613q3 0 10 -4q148 36 207 96h-3q-54 -16 -176 -20q0 -4 -38 -8v-64zM426 1145h42q134 -16 134 -108 v-12q0 -44 -38 -112h3q89 39 89 84q10 9 10 28v20q0 102 -160 120q-8 0 -25 4q-31 -4 -55 -20v-4z" />
<glyph unicode="Q" horiz-adv-x="1209" d="M63 528v57q0 164 83 382q9 68 91 227q74 125 246 181l49 8q71 0 227 -76q310 -248 310 -597v-42q0 -104 -49 -219q140 -83 140 -114q-100 -128 -144 -230q-27 -40 -45 -42q0 4 -4 4l4 7q-85 63 -140 80q-73 -30 -193 -30h-102q-224 0 -401 177q-62 106 -72 227zM93 528 q0 -62 57 -193q54 -71 170 -132q121 -49 223 -49h121q163 0 163 45q21 16 53 64h-4q-85 -71 -249 -71q-283 0 -439 332q-57 170 -57 295h-4q-34 -133 -34 -242v-49zM309 778q0 -81 68 -235q37 -58 98 -75q68 -37 114 -49h7q17 19 42 87q91 84 136 94h8l11 -7h4q10 31 15 90 q0 128 -76 276q-101 146 -238 201q-54 -20 -76 -61q-76 -86 -106 -246q-7 -64 -7 -75zM577 1156q159 -75 239 -291q22 -119 22 -151v-61q0 -42 -26 -79q34 -27 49 -27q23 20 30 49q4 101 4 125q0 76 -98 299q-55 88 -163 125q-16 7 -53 15h-4v-4zM634 426h8l26 4q0 5 -23 23 q-11 -19 -11 -27zM835 184l83 -45q5 0 60 -42h4q7 1 45 83q-98 76 -124 76q-35 -59 -68 -72z" />
<glyph unicode="R" horiz-adv-x="971" d="M63 1172q78 193 116 193q37 7 44 7q188 4 193 4q223 0 334 -102q167 -90 167 -280v-3q0 -162 -203 -251v-4q50 -151 109 -385q0 -4 51 -113v-7q-50 -115 -91 -138l-120 7q0 -14 -8 -14h-7q-89 123 -145 392q-21 113 -37 113h-7q-31 0 -91 4q4 -311 15 -400 q-24 -80 -73 -128l4 -7v-3q0 -12 -51 -15q0 7 -7 7h-4q-31 0 -98 -3q-7 12 -7 21q0 4 3 11q-32 146 -51 535q-25 559 -36 559zM88 1165q19 -229 55 -901l22 -153q10 4 29 73l-4 18v69q-22 297 -36 1021v4h-4zM176 67l18 4h102q50 66 58 98h-4q-13 -7 -29 -7h-73 q-43 0 -43 -25q-29 -61 -29 -70zM365 1125q3 -49 3 -62q18 8 106 26q103 -5 127 -84l7 -18q0 -30 -29 -94q58 11 102 69q20 36 22 61q0 48 -66 102q-77 33 -134 33q-138 -25 -138 -33zM368 613q49 -4 73 -4h40q33 56 33 87q-13 0 -33 -3q-73 7 -109 7l-4 -7q4 -50 4 -69 q-4 -7 -4 -11zM372 863q43 4 62 4h40q77 0 98 69q11 18 11 47q0 71 -109 84q-45 -11 -102 -18v-186zM496 591q69 -269 94 -342l47 -109h4q15 8 47 80q-68 278 -127 404q-22 59 -22 72h-7q0 -36 -36 -105zM655 126q72 -11 102 -11h22q41 51 58 94h-3q-11 -3 -120 -14l-19 3 q0 -13 -36 -61q0 -4 -4 -11z" />
<glyph unicode="S" horiz-adv-x="852" d="M0 120q25 41 104 152q0 32 20 32l40 -4q237 35 304 92q76 73 76 92q-74 78 -156 104q-170 41 -272 156q-56 64 -56 288v36q0 130 156 268q93 72 204 72q0 7 52 12q49 0 68 -124q7 -19 20 -20v-4q-39 -148 -84 -148q-120 -37 -120 -64q-72 -70 -72 -120v-16 q17 -34 208 -44q143 -27 196 -76q100 -107 100 -240q0 -83 -52 -188q-17 -19 -60 -128q-92 -107 -156 -144q-109 -104 -324 -104h-4q-140 7 -140 28q0 28 -32 96q-5 -4 -20 -4zM36 140q30 -87 36 -88q20 21 56 80q-20 46 -20 108h-4q0 -7 -68 -100zM84 32q25 -12 120 -12 q192 0 304 104q160 118 160 168q-64 -52 -164 -96q-4 -10 -224 -76q0 -4 -8 -4l-36 4q-48 -8 -72 -8q-3 0 -24 4q-10 -28 -56 -84zM88 876q16 -86 52 -120q77 -97 264 -144q67 -23 156 -104h4q20 49 20 56q0 67 -164 112q-106 28 -248 104q-70 55 -80 100h-4v-4zM244 1004 l12 -48h4q0 58 112 156q51 28 116 44q32 60 32 80q-8 4 -12 4q0 -9 -84 -32q-172 -121 -172 -188q-3 -16 -8 -16z" />
<glyph unicode="T" horiz-adv-x="1125" d="M42 1135q68 133 88 183q-4 6 -4 14q4 10 24 10q19 -14 32 -14q438 -13 540 -13q38 -7 60 -7h4q78 0 216 -3q40 -10 40 -34q0 -55 24 -146v-3q-70 -84 -84 -112q-23 0 -28 -4q-8 4 -12 4q-102 -14 -204 -14h-20q0 -155 12 -257v-251q-8 -82 -8 -92v-118q0 -12 16 -27 q0 -12 -64 -112q4 -6 4 -14q0 -4 -40 -20q0 17 -92 17h-76q-21 0 -28 17q-24 0 -24 108v421q0 5 -8 81v234l-28 3q-44 0 -132 4l-48 -4q-83 8 -132 17q0 -5 -12 -10q-12 3 -12 20v102zM66 1037h4l72 102l-4 13q8 26 8 48q0 45 -8 81h-4q-34 -82 -68 -129v-115zM78 1017 q48 -7 132 -11q4 0 32 4q100 -4 184 -4h8q0 8 68 82h-68q-147 13 -284 20q0 4 -8 4q-64 -88 -64 -95zM434 979q0 -30 4 -50q4 -329 4 -546v-163q8 -33 8 -37v-20h4q6 0 48 88v3q0 102 4 132q-4 85 -4 170q0 176 12 251v13q0 73 4 136q-4 29 -4 108zM482 156q12 0 12 -14h84 q21 0 68 -3l52 91h-4q-85 -6 -96 -6q-4 0 -12 3q-22 -3 -36 -3h-36zM718 1017h44l188 17h16q46 45 60 74h-4q-48 -2 -48 -7q-40 4 -60 4h-120q-70 -7 -72 -7v-75z" />
<glyph unicode="U" horiz-adv-x="1034" d="M83 1079v24q0 14 4 36l-4 8q0 14 128 244q0 -5 20 -16h20q120 0 120 -28q0 -4 4 -12q-4 -35 -4 -44q32 -447 80 -716q50 -216 108 -216q0 -4 12 -4q80 20 80 52q12 57 12 132q0 229 -64 648l-12 -8q-8 0 -8 8q13 24 88 132q18 43 28 44h4q8 -1 8 -8q41 20 152 20 q28 -28 28 -44q32 -542 32 -736q0 -199 -88 -300q-31 -129 -148 -252q-60 -36 -144 -36q-204 0 -356 252q-40 83 -76 332q-15 189 -24 488zM107 1163q20 -647 60 -744q10 -119 104 -244q135 -140 268 -140q128 0 176 88q72 100 72 132q-119 -88 -276 -88q-219 0 -264 296 q-20 106 -48 576v264q-48 -81 -92 -140zM619 1199q36 -132 72 -648l-12 -136h4q42 0 56 232q0 100 -52 652h-4q0 -12 -64 -100z" />
<glyph unicode="V" horiz-adv-x="1069" d="M49 1141q0 28 96 204q10 0 27 16l17 -12l150 8q7 -4 11 -4l7 4q34 0 34 -28q0 -8 -7 -8q29 -89 65 -368q28 -133 68 -212q0 -10 45 -180h3l96 540q11 83 17 100h3l10 -8q95 109 137 180h7l20 -12q28 10 28 12q113 0 113 -52q3 0 3 -12q-17 -110 -38 -132 q-30 -294 -106 -568q-61 -240 -61 -288q0 -37 -55 -160q0 -20 -65 -140h-3q7 -13 7 -20q-11 -8 -21 -8h-3q-28 0 -62 8l-51 -8q-75 4 -106 8q0 -8 -7 -8h-3q-16 0 -27 84q-168 625 -168 628q-41 121 -92 252q-62 181 -62 204q-21 -28 -24 -28zM87 1185q5 -52 109 -324 q58 -155 137 -460q10 0 61 -228q18 -98 31 -104q28 61 55 100q-38 75 -86 272q-44 150 -219 800q-7 9 -20 72h-7q-61 -123 -61 -128zM432 29q17 -8 61 -8h45q15 0 54 8q32 -8 52 -8h3q5 0 62 120h-4q-112 4 -174 4l-21 4q-25 0 -61 -92q-6 0 -17 -28zM579 497 q24 -93 24 -108h13q8 6 28 132q13 38 95 476l65 288q-113 -134 -113 -148q-23 -178 -112 -640z" />
<glyph unicode="W" horiz-adv-x="1593" d="M62 1117v16q70 179 84 196q0 14 84 28q35 -4 40 -4q50 8 60 8t112 -364q0 -21 136 -472q24 -55 24 -60q124 160 184 268q15 12 28 12l12 -8l148 12l84 -100h4q0 22 96 316l76 292q19 2 80 84q33 23 52 48q0 -9 156 -16l12 -16q0 -202 -132 -784q4 -8 4 -12 q-128 -315 -128 -400q-64 -93 -112 -140q-114 12 -132 12h-8q-82 92 -184 404h-8q-42 -85 -200 -300q-44 -97 -64 -108q-16 0 -120 20q0 -8 -8 -8h-4q-13 0 -72 148q-80 222 -168 412q-104 444 -128 508q-8 0 -8 8zM86 1129q35 -83 76 -280q16 -36 72 -276q67 -120 180 -440 q6 -1 16 -32q7 0 32 68q-76 360 -192 688q-28 75 -120 420h-4q-17 -59 -60 -148zM454 77q11 0 104 -24l72 128h-4q-140 -16 -140 -24zM850 457q20 -27 132 -308q44 -65 44 -76q28 16 28 20q-8 0 -8 8v8q37 50 40 72q-193 356 -200 356zM1066 61q40 -8 96 -12l92 120h-4 q-61 -16 -116 -16h-12q-5 0 -56 -92zM1078 617q58 -88 72 -128h8q0 23 96 336q0 79 116 536h-4q-124 -112 -124 -160q-64 -271 -156 -548q0 -6 -8 -36z" />
<glyph unicode="X" horiz-adv-x="1132" d="M56 1195q18 41 71 120l-4 9q0 9 13 9l213 18q157 -256 240 -354l93 244q118 138 133 138h134q24 0 35 -23v-5q-10 -42 -129 -322q-43 -129 -93 -239q-4 -8 -4 -23q53 -72 137 -249q191 -291 191 -303q0 -7 18 -33q-76 -124 -111 -124h-93q-36 0 -85 5q-6 -5 -26 -5 q-161 331 -205 378q-74 -98 -119 -212q-9 0 -9 -32q9 -2 9 -10v-4l-85 -111q0 -18 -13 -18h-22q-227 16 -227 28v9q0 9 13 9q-13 15 -13 23q0 25 67 170q37 115 58 115q51 87 150 332q-8 31 -119 216q-67 86 -218 244zM87 1213q0 -6 187 -202q60 -86 137 -226l9 -4 q56 27 71 27v5q-161 263 -324 460l-13 28q-44 -64 -67 -88zM149 95q62 0 178 -14h18q23 0 66 74q7 0 14 14h-5q-17 0 -186 -5q-74 -64 -85 -64v-5zM163 141q80 68 80 92q188 399 199 442l58 106h-4q-80 -20 -80 -60q-80 -188 -191 -423q0 -12 -54 -129zM602 969l9 -4 q24 56 124 239q0 15 45 106v5h-5q0 -18 -75 -79v-18q0 -26 -31 -78q-36 -102 -67 -171zM607 459q89 -130 195 -359h4q19 1 58 78q5 0 5 4q-9 31 -214 382q-48 -88 -48 -105zM855 100q2 -10 9 -10h98q52 0 71 42l31 41v5h-22q-10 0 -18 -5q-4 0 -4 5l-31 -5h-89z" />
<glyph unicode="Y" horiz-adv-x="1125" d="M41 1104v4q0 34 64 192q110 62 160 67h8q215 -338 332 -484h4q176 219 292 467q28 42 32 42q144 -48 144 -58v-13q-26 -129 -208 -363q-172 -259 -172 -297v-46q8 -106 8 -125v-271l8 -13v-8q-45 -78 -84 -117q0 -21 -24 -21q-28 -4 -80 -4h-52q-29 0 -44 25q8 0 8 8v13 q-28 0 -28 33q0 19 4 25q-4 70 -4 109v67q0 22 4 37q-4 22 -4 42v146h-4l-12 -8l-4 8q16 7 16 29q-13 11 -60 113q-78 115 -252 330q-40 71 -52 71zM69 1137q0 -38 196 -271q139 -179 152 -246h4l64 121q-11 21 -72 92q-73 131 -248 334q-44 65 -44 79h-4q-17 -57 -48 -109z M437 265q4 -77 4 -130q8 0 8 -12h8q0 7 32 54q8 151 8 259v259h-4q-25 -58 -56 -96v-17q0 -127 4 -221q-4 -66 -4 -96zM461 94q4 0 4 -5l8 5l12 -9h20q34 0 108 4q0 5 60 101h-4q-172 0 -172 -42q-15 -27 -36 -54z" />
<glyph unicode="Z" horiz-adv-x="1153" d="M21 1211q122 120 160 120h16q99 -12 116 -12q59 4 104 4q188 -28 444 -56q36 0 48 -4q16 4 28 4q19 0 40 -4q27 4 44 4q82 -1 92 -28v-8q0 -14 -104 -160q-101 -167 -280 -356q-68 -135 -220 -292h44q31 0 56 -4q22 4 36 4q80 -8 180 -12q7 0 48 4q62 -4 144 -4l12 -16 v-68q0 -40 16 -104v-8q-85 -131 -100 -136q-17 0 -36 -16h-12v8q-57 -4 -292 -8q-344 12 -524 40l-8 12v8q24 21 68 144q120 158 184 268q7 0 120 144q173 197 260 312h-112q-29 0 -344 40q-204 9 -204 40zM49 1203q16 -104 16 -132q108 80 108 100q12 117 12 140 q-48 -22 -136 -108zM105 1071q216 -12 472 -48h108l48 -4q0 7 64 72v4h-148q-111 0 -476 40q0 -6 -68 -64zM109 127h4l512 -24q324 0 324 36q16 16 40 52l-40 4q-63 0 -252 12q-108 0 -516 4q-71 -72 -72 -84zM153 223q6 0 16 16v16h-4q-12 -29 -12 -32z" />
<glyph unicode="[" horiz-adv-x="794" d="M36 522q0 320 32 666q8 98 8 133q14 0 28 73q43 121 56 126h4q8 -1 8 -7q39 22 440 34h12q40 0 120 -4q13 -13 28 -53v-58q0 -80 -32 -80q-82 -118 -108 -118q-5 7 -64 11q-76 -4 -128 -4q-17 0 -44 4q-14 -4 -44 -4h-4q-12 0 -20 -122l8 -279l-28 -558l408 -77l8 -11 q-31 -190 -40 -192q-67 -86 -120 -141h-4q-263 65 -344 88q-106 27 -128 69q-20 0 -20 103q-8 62 -32 401zM60 580q30 -558 48 -558l32 80q-16 20 -16 107v50q0 15 4 42l-4 7q8 138 12 356q-4 173 -4 225q16 471 16 543v8h-4q0 -12 -48 -142q-32 -512 -32 -562 q0 -129 -4 -156zM128 10q6 0 36 -23l404 -99q48 53 88 107v4l-440 61l-60 27l-28 -73v-4zM344 1260l40 4h72q45 0 96 8q38 -4 76 -4q59 54 84 88h-20q-211 0 -336 -15h-4q0 -21 -8 -81z" />
<glyph unicode="\" horiz-adv-x="685" d="M-14 1226v17q13 0 13 63q3 0 11 72h-2l5 16l32 -4q37 0 135 21q443 -998 507 -1130q5 -1 5 -8v-4q0 -77 -51 -206h-6v4l6 17h-3q-57 -84 -62 -84q-3 0 -27 34q-13 0 -13 8h2q-5 17 -5 29q3 9 3 13q-172 279 -189 340q-86 145 -102 219l32 -47q-21 58 -100 198l-5 -4h-3 q-53 133 -83 189q-59 187 -95 222q-5 14 -5 25zM8 1239q120 -314 177 -428q120 -206 178 -378q30 -73 170 -303q13 -22 13 -29h6l11 54l-539 1197h-3zM560 76q7 -30 22 -30q76 87 78 105q13 74 13 84q-21 -17 -51 -59q-51 -29 -51 -50q-11 -43 -11 -50z" />
<glyph unicode="]" horiz-adv-x="870" d="M35 48v8q0 32 104 159l276 35v7q24 355 44 575q16 165 24 368q-14 12 -20 12q0 4 -4 4l-20 -4q-400 23 -400 35v8q0 174 36 174q37 52 96 125q0 11 16 19h24q176 0 556 -50q48 -21 52 -31l-16 -544l4 -19q-28 -365 -28 -516q0 -4 4 -12l-4 -27q0 -299 -36 -299 q-39 -45 -124 -163q-8 0 -28 -12q0 8 -8 8q-155 -15 -464 -27h-56q-10 0 -12 16q0 37 -4 81q4 30 4 62q-4 8 -4 12l-8 -4h-4zM63 71q12 -19 12 -50v-93q1 -8 8 -8l64 93q-8 83 -20 155h-4q-60 -91 -60 -97zM63 1266h4q46 61 84 136q-4 46 -4 66l4 20q-84 -75 -84 -159 q0 -42 -4 -59v-4zM99 1255h4q70 0 332 -16q34 4 56 4l72 101v4q-57 15 -396 35q-32 -66 -68 -120v-8zM107 -92h16q504 15 504 51q0 6 56 81v4q-47 -11 -232 -23l-8 4q-158 -16 -216 -24l-8 4q-27 -4 -44 -4l-8 4q-60 -90 -60 -97zM443 250q94 19 136 19v4q0 56 4 151l-4 16 q0 4 4 11q-4 51 -4 82v8q0 50 4 108l-4 20l4 27q0 18 -4 39q12 252 28 399l-16 160q4 20 4 38v4q0 8 -8 8q-39 -69 -84 -120v-109q0 -57 -40 -559q-8 -152 -20 -299v-7z" />
<glyph unicode="^" horiz-adv-x="1139" d="M56 569v4q80 95 110 206q114 208 114 220q94 212 231 394q6 4 14 4h11q112 -60 252 -259q182 -172 259 -295q7 0 7 -11q-17 -193 -67 -210q-62 -63 -132 -106h-3q-5 0 -11 10v18q-36 23 -121 199q-96 144 -181 238l-32 32q-118 -380 -138 -380q-5 0 -86 -89q4 -6 4 -14 q-14 0 -50 -18l-3 7l7 15q-16 0 -160 39l-18 -11q-7 0 -7 7zM92 590q0 -5 85 -21q51 -18 89 -18q74 77 74 82v4q-145 49 -181 67q-32 -67 -67 -114zM514 1038q81 -89 160 -185q72 -101 149 -252q22 -20 22 -28h3q38 53 57 96q-127 105 -192 234q-83 130 -156 217 q-17 -19 -43 -82zM873 555q146 89 146 192q7 0 7 35q-115 -125 -124 -170q-29 -40 -29 -54v-3z" />
<glyph unicode="_" horiz-adv-x="1237" d="M21 205v27q31 37 98 137l10 6h3q9 0 20 -6q81 19 333 29q97 16 193 23q25 -3 173 -7q107 7 167 7q23 0 163 -3q26 -9 26 -17v-13q-7 -23 -7 -26q-3 -104 -3 -121q7 0 7 -9q-16 -35 -69 -102l3 -16q-5 -7 -55 -13v6q-116 -3 -134 -3l-3 -6q23 -4 26 -4v-6h-3q-15 0 -72 3 q-11 -7 -17 -7q-26 0 -52 4q-44 -4 -62 -4q-26 0 -62 4q-118 -7 -147 -7q-45 3 -56 3q-82 -9 -189 -16q-52 0 -170 3q-61 0 -88 -29h-13q-10 3 -10 20v143h-10zM47 232q3 -25 7 -138q3 0 9 -3q53 89 53 98v137h-4q-9 -29 -65 -94zM86 84h4q32 7 58 7h4q64 0 137 -3l212 19 q48 -3 53 -3q32 0 153 7q39 -4 56 -4q49 4 91 4v-4q41 13 121 20h43q27 0 88 3l59 79h-10q-189 -13 -448 -20q-179 -15 -496 -26h-82q0 -11 -43 -79z" />
<glyph unicode="`" horiz-adv-x="1024" d="M212 1363q0 31 20.5 51t53.5 20q20 0 40.5 -12t55.5 -47l291 -296h-69l-330 202q-31 20 -46.5 40t-15.5 42z" />
<glyph unicode="a" horiz-adv-x="1237" d="M49 137q60 250 76 343q52 174 64 243q10 0 56 198q11 0 32 138q28 78 44 194q15 0 60 56q6 0 64 53q12 0 12 -4l20 4q181 7 248 7h40q5 0 24 -30l-4 -7q9 -3 68 -142q68 -148 200 -545q48 -90 124 -333q-7 -23 -76 -175h4q8 -1 8 -8v-7l-4 -8q-74 -3 -108 -3h-4 q-84 0 -84 37q-15 0 -124 321q-3 3 -36 86q-237 -37 -320 -37h-28q-80 -318 -144 -389q-31 -51 -48 -52q-152 23 -152 37q-12 15 -12 23zM81 144q52 61 52 82v38l84 328q16 95 120 404q64 185 92 306q-96 -64 -96 -123q-32 -126 -96 -430q-104 -289 -104 -377 q-20 -53 -52 -209v-19zM109 122l104 -19q26 43 60 86v4h-4q-99 11 -112 15q-16 -34 -48 -75v-11zM417 544h8q78 0 300 41q0 10 32 41l36 48v4l-8 -4h-28q-40 0 -40 -11v-3h-20v11l-228 -23l-20 12zM429 1306h4v11h-4v-11zM501 831q16 0 160 15q-28 46 -76 153h-4 q-44 0 -44 -18zM549 1022h4q48 0 64 52l32 52q0 8 -8 8h-48l-20 3zM609 1014l72 -160v-4q70 4 88 4v3q-52 152 -92 254h-4q-16 -37 -60 -82l4 -7v-8h-8zM761 592q38 -59 156 -392v-4h8q0 18 32 60q-40 101 -128 422q-10 -8 -68 -86zM937 140q57 -7 80 -7h12q44 0 44 19 q0 6 48 108h-4q-103 -30 -144 -34q-36 -70 -36 -78v-8z" />
<glyph unicode="b" horiz-adv-x="1027" d="M62 202q13 409 29 711q0 89 13 272q0 2 -3 19q0 9 26 43q10 38 65 116l22 -3q18 0 133 16q252 -22 370 -61q184 -75 237 -195q16 -42 16 -45v-39q0 -34 -32 -127q-30 -31 -46 -64q-109 -57 -126 -72q49 -13 133 -94q42 -44 42 -91v-13q0 -267 -94 -311q-40 -14 -104 -94 q-143 -91 -266 -91q-85 -16 -146 -16h-16q-97 0 -237 32v4q7 0 7 6q-10 0 -23 97zM88 209q0 -24 13 -88q46 42 68 78v16q0 14 3 26q0 7 -3 7q16 439 32 1083q-52 -85 -77 -114q0 -6 3 -35q-13 -233 -20 -454q-6 -41 -9 -143l3 -29q-13 -248 -13 -347zM117 102 q191 -20 214 -20q230 23 286 46q129 58 129 81h-3q-69 -32 -156 -32h-152q-18 0 -45 3q-37 -16 -101 -16q-80 0 -110 13v-4q-22 -32 -62 -68v-3zM380 387q48 4 71 4h91q94 0 185 51q0 84 -192 101q-89 -10 -116 -10l-33 3q-6 -136 -6 -149zM390 553h9l130 13h13 q169 0 207 -98h7q13 38 13 52q0 60 -136 98q-74 13 -101 13q-84 0 -139 -10q-3 -49 -3 -68zM409 1123q10 -153 10 -236v-7q42 -10 159 -10q1 -6 6 -6q120 28 120 45v36q0 77 -78 140q-79 42 -214 42q0 3 -3 3v-7zM409 1146q15 0 42 3q126 -9 172 -29q62 -37 88 -91 q26 -64 26 -84h3q32 61 32 120q-57 141 -240 149q-120 -11 -120 -19q-3 -28 -3 -46v-3z" />
<glyph unicode="c" horiz-adv-x="1055" d="M49 456v31q0 206 131 469q38 134 250 319q130 96 258 96q0 6 149 19q135 -11 135 -58v-19q0 -44 5 -134q8 0 8 -12q-29 -49 -144 -138h-9q-205 0 -337 -108q-113 -119 -113 -226l-9 -73q23 -162 52 -162q0 -24 110 -65q77 -15 262 -27q36 15 92 15h57q44 0 44 -107 q4 -81 9 -92q0 -23 -197 -177q-263 0 -381 65q-122 33 -245 135q-127 138 -127 249zM88 464q0 -149 193 -288q189 -100 341 -127q127 -4 167 -7q39 17 148 119l13 15h-8q-192 -54 -302 -54h-13q-136 0 -307 96q-102 59 -166 281q-22 118 -22 180v46h-4q-40 -139 -40 -261z M438 910h5q55 79 171 119q103 27 227 38q23 18 66 62q-15 0 -140 15q-137 0 -245 -96q-72 -86 -84 -134v-4z" />
<glyph unicode="d" horiz-adv-x="971" d="M76 724q0 25 23 369l-12 -14h-3v3q17 54 17 70q17 0 23 36q69 172 87 202h6l8 -8h3q8 0 17 8q16 0 31 -4q41 4 73 4q61 0 183 -63q58 -19 124 -98q251 -200 251 -524v-22q0 -74 -23 -245q0 -34 -73 -183q-5 0 -37 -44q-99 -124 -155 -142q-116 -44 -129 -44 q-43 0 -155 -4q-83 4 -124 4q-110 15 -110 40q0 7 -5 37q-12 352 -12 380v40q-8 124 -8 202zM96 709q8 -72 8 -274q15 -328 20 -363h3q49 74 67 125q-3 216 -5 216q2 75 2 135v344q0 63 12 322v99h-3q-43 -115 -85 -180q3 -53 3 -58zM152 65q36 -11 110 -11h8q4 0 45 -7h48 q48 7 54 7h50q65 0 195 73q50 48 87 95q68 78 101 180q0 7 9 36v4h-3q-20 -62 -144 -168q-56 -72 -191 -110q-107 -22 -163 -22h-74q-37 0 -81 18q0 -17 -51 -95zM355 764l14 -326v-102h20q78 0 180 62q45 30 45 66q14 47 14 99v84q0 221 -189 318q-52 22 -79 22v-26 q0 -9 -5 -128v-69zM360 1013q159 0 259 -180q21 -40 37 -146q3 -19 3 -37v-91q0 -21 -6 -55q31 44 31 168v19q0 251 -141 355q0 13 -92 54q-5 0 -43 11q-37 -7 -45 -7v-36q0 -19 -3 -55z" />
<glyph unicode="e" horiz-adv-x="1132" d="M77 1215q54 81 124 146l18 11q476 7 581 25q80 0 164 -11h80q18 -8 18 -36v-33q0 -47 -11 -88q11 0 11 -7q-3 -39 -95 -153q0 -18 -14 -18q-222 -25 -498 -44q0 -4 -25 -7q3 -92 3 -135v-14h4q140 33 425 47h18q84 0 84 -29q0 -19 7 -113q0 -69 -43 -109q0 -9 -44 -55 q-5 -44 -44 -44q-114 -3 -152 -10q-183 -4 -229 -4l-26 4v-124q1 -8 7 -8h197q12 0 18 4l22 -4h87q226 -10 243 -18q19 0 19 -171q7 -1 7 -7v-7q-39 -54 -91 -102q7 -2 7 -8v-3q0 -30 -200 -40q0 -4 -7 -4q-557 -7 -581 -7q-7 -4 -15 -4q-12 0 -33 233v146l-18 302 q0 95 -3 382v4h-4v-11h-7l3 26v54q0 19 -7 44zM102 1226l15 -124q4 -313 4 -404q7 -46 18 -284v-142q0 -49 22 -190q48 73 54 91q-11 3 -11 30v294q0 66 7 84l-7 62q7 58 7 146q-14 206 -14 422q7 70 7 99v18h-3q-48 -39 -99 -102zM175 60h73q79 0 116 8l7 -4q7 4 15 4v-4 q7 4 11 4q92 0 334 3q148 13 160 22q34 16 95 88v3h-66q-26 0 -40 8q-39 -8 -363 -30h-109q-20 0 -87 8q-91 -7 -91 -15q-31 -43 -55 -95zM422 1124q8 -53 8 -58v-44q33 17 381 40q28 6 117 18h25l73 102h-4q-28 0 -51 4q-199 -21 -469 -29q-80 -6 -80 -15v-18zM433 556 q351 14 415 22l-4 18q19 0 69 84q13 0 18 14v4q-109 -11 -451 -58q-29 0 -47 -4v-80z" />
<glyph unicode="f" horiz-adv-x="1027" d="M68 1162q0 21 161 205q130 -12 152 -12l209 12q25 0 108 -4q184 20 235 20h4q31 -14 31 -68q-5 -98 -5 -108q-100 -109 -100 -121h-8q-5 0 -13 4q-84 -12 -139 -12h-274v-124q346 4 478 16q20 -6 39 -28l-4 -20v-4q0 -147 -70 -209l-52 -69h-4q-25 0 -31 5q-56 -5 -91 -5 h-131q-55 0 -134 -12q-5 -193 -5 -285l-4 -8q4 -7 4 -16v-24q0 -19 -4 -40q9 -66 26 -116q-95 -136 -95 -149q-9 0 -9 4q-45 -4 -183 -8l-17 8q0 -8 -9 -8h-4q-39 0 -39 60v157q0 4 4 4l-4 8q0 4 4 4l-4 8v4q0 4 4 4l-4 8v56q0 4 4 4l-4 8v24q0 4 4 4l-4 8v105q0 4 4 4 q-4 8 -4 12q0 38 8 88q-5 59 -8 64l4 8q0 4 -4 4l4 21v8q0 14 -4 36q0 4 4 4q0 4 -4 12l8 120q0 4 -4 4l4 20v61q0 94 -13 208v24q-17 0 -17 12zM107 1142l18 -164q0 -74 -5 -338q0 -41 5 -64q-5 -83 -5 -152v-402q9 0 39 44q53 48 61 48q0 36 -4 89q0 156 17 490l-17 377 v64q0 19 4 41q-4 14 -4 36v12q0 32 4 84v4h-4q-6 -13 -109 -140v-29zM155 14l9 -4q19 0 95 8q9 -4 13 -4q9 4 13 4v-4l9 4h4q5 0 5 -4q34 0 74 76q7 0 21 29q-182 -11 -182 -49q-7 -1 -61 -56zM429 657q82 12 134 12h70q64 0 174 4q26 23 82 96v4q-19 -8 -460 -28v-88z M429 1106q8 0 8 -4l22 4h235q159 0 165 28q6 0 52 53v4l-30 4h-18q-155 8 -173 8h-22q-231 -15 -231 -24z" />
<glyph unicode="g" horiz-adv-x="1045" d="M70 603q0 125 52 274q16 135 221 372q133 115 303 115h118q33 0 33 -22q-8 -192 -33 -192q-43 -64 -96 -107h-7q-9 7 -15 7q-114 0 -281 -188q-59 -80 -59 -170v-55q0 -104 85 -226q100 -55 189 -55q13 -4 33 -4q64 0 114 92h-7q-77 -11 -218 -11l-33 -3q-41 12 -41 44 q-9 92 -18 92q69 152 99 152h104q45 0 111 -4l18 4q20 -4 30 -4q106 11 158 11q29 0 34 -85q0 -15 7 -122q0 -133 -70 -277q-84 -119 -255 -181q-98 -18 -125 -18q-194 0 -348 203q-103 179 -103 358zM100 607q0 -176 107 -358q148 -177 317 -177q89 0 229 70q90 70 104 96 h-4q-115 -93 -229 -93q-271 0 -395 200q-122 169 -122 343h-4q-3 -55 -3 -81zM365 913q165 167 288 167h19l70 88v4h-22q-100 0 -218 -81q-84 -68 -129 -159q0 -6 -8 -15v-4zM436 574q18 -69 18 -107q5 0 55 88l-3 15l3 7q-14 65 -14 78h-8q0 -15 -51 -81zM487 463 q204 7 222 15q19 -4 37 -4l29 63q-79 4 -118 4h-22q-13 0 -33 -4q-7 4 -11 4q-33 -4 -56 -4h-7q-15 -33 -41 -70v-4zM705 360h8q56 0 77 81q7 52 7 70h-7l-48 -111q-3 0 -37 -40z" />
<glyph unicode="h" horiz-adv-x="1125" d="M105 834l22 341q4 0 4 10q-4 6 -4 10q0 23 30 40q33 42 71 107h7q8 -1 8 -7l18 4h37q123 -7 123 -47v-57q0 -101 -4 -127q4 -75 8 -508q147 16 308 26v4l8 207l-8 187q0 218 23 218q77 83 89 83q121 10 130 10q41 0 41 -294l7 -318h-3l3 -6v-14q0 -97 -3 -120 q3 -70 3 -147v-91q0 -37 8 -120q-59 -90 -82 -90l-11 6q-98 -3 -145 -3v3l-8 -3h-11l-7 3l3 41v123l-3 34q-9 0 -15 -4q-49 4 -78 4h-8q-26 0 -29 -4q-26 4 -41 4h-30q-43 0 -138 -4v-80q0 -17 -3 -50q7 0 7 -10q-49 -90 -108 -90q-68 -4 -115 -4q-8 0 -41 4q-12 -7 -22 -7 q-26 0 -26 100q0 203 -15 636zM135 824q0 -110 11 -291q0 -91 4 -371l3 -34h8q22 46 48 84q0 6 -4 6q4 46 4 67v7q0 59 -4 124q11 142 15 337q-2 39 -7 221q4 211 7 308v3h-3q-12 -30 -64 -83l4 -24zM191 125h7q42 0 156 3l37 54v3q-18 0 -44 -3q-101 3 -123 6q0 -7 -33 -63 zM425 355h3q67 4 108 4h19q15 0 30 3q14 -3 29 -3h8q30 0 48 3q23 -3 52 -3h26q25 0 89 90q-37 -7 -74 -7h-59q-61 0 -171 -6q-93 3 -105 6q-3 -65 -3 -87zM756 1212q7 -35 7 -54q0 -120 4 -381q-4 -88 -4 -147q13 0 78 6q0 102 -11 572q0 4 4 34q-4 10 -4 40v3 q-62 -68 -74 -73zM785 359q0 -5 8 -80q0 -20 -4 -54l4 -23q-4 -21 -4 -47q5 0 60 60q5 0 14 13q-11 89 -11 191h-3q-28 -32 -64 -60zM823 158q134 0 145 17l33 43q-44 -3 -63 -3h-56z" />
<glyph unicode="i" horiz-adv-x="482" d="M70 1243q48 58 98 131l7 3q177 0 177 -52q36 -577 36 -718v-52q0 -85 -7 -203q3 -35 10 -53q-38 -94 -75 -124q-3 0 -10 10q-61 -7 -79 -7h-39l-33 -3q-3 6 -3 10q0 28 3 72q-33 434 -59 694q-6 67 -16 279q-8 0 -10 13zM99 1246q0 -147 50 -652q0 -36 26 -353h3l30 65 q-4 39 -4 56v236q-26 417 -26 560q-3 89 -3 170l3 7q-5 13 -10 13q0 -11 -69 -102zM178 195h39q102 6 102 16q36 59 36 66h-3q-33 -14 -79 -14h-46l-16 4q0 -13 -33 -72z" />
<glyph unicode="j" horiz-adv-x="824" d="M21 490q59 153 93 153l35 4q107 0 107 -25q0 -157 64 -228q33 -28 75 -28h3q104 17 104 39q0 37 7 192q-15 190 -25 584q-5 0 -11 10v4q41 60 82 146h7q88 0 150 7q17 -55 56 -545q4 -118 4 -199q0 -85 -28 -196l3 -18q-72 -183 -260 -309q-62 -18 -92 -18h-22 q-191 0 -302 182q-50 140 -50 245zM42 487q0 -190 96 -303q100 -103 257 -103q123 0 267 196q-112 -75 -185 -75q-7 -10 -86 -14q-65 0 -178 60q-114 79 -114 239q-9 92 -17 92q-40 -81 -40 -92zM498 1195q11 -91 25 -527q3 0 7 -100q-7 -74 -11 -156q72 67 72 324 q0 357 -29 559h-7q-27 -63 -57 -100z" />
<glyph unicode="k" horiz-adv-x="1153" d="M70 1214q0 8 108 204l20 -4q117 8 148 8h4q23 0 48 -360q12 -122 12 -160q155 179 192 212q139 138 212 256q24 24 32 24q39 -29 120 -136q16 -17 16 -32v-8q-11 -16 -120 -92q-102 -100 -104 -124q-56 -55 -56 -68q-13 0 -128 -124q-52 -43 -52 -48q125 -95 276 -180 q69 -49 204 -132q80 -89 128 -132q-20 -57 -92 -184l4 -20v-4q0 -8 -8 -8h-16l-264 172l-240 172q-58 34 -88 56h-4v-4q0 -64 -4 -124q12 -171 12 -184q0 -56 -28 -72q-32 -52 -44 -96q-25 -9 -52 -36l-4 8q6 0 12 16h-4q-69 -12 -128 -12h-28l-12 -8q-6 0 -16 16 q-36 458 -36 1212l-8 -4h-12zM102 1238q8 -13 8 -20q4 -237 8 -256q-4 -35 -4 -40q12 -800 36 -900q49 52 96 128q0 158 -60 864q-6 11 -16 88l12 20q-4 133 -12 236h-4q-28 -68 -64 -120zM174 18h8q152 9 152 24l48 80h-76q-34 0 -52 8q-36 -60 -80 -112zM422 538 q17 -19 156 -100q249 -187 400 -272q25 -24 44 -24q20 48 20 56l-180 144q-9 0 -248 168q-133 69 -192 112v-84z" />
<glyph unicode="l" horiz-adv-x="950" d="M83 1173q74 181 88 193q21 17 37 17q76 0 168 -24q16 0 33 -248q18 -77 52 -703q6 -14 29 -14h11q114 0 378 -41l7 -11v-31q0 -15 -11 -76q4 -6 4 -10q-8 -59 -77 -134q7 -1 7 -7q0 -12 -55 -14v3l4 7q-37 4 -55 4h-59q-78 0 -176 -4q-104 11 -191 11q-18 0 -44 -4 q-94 6 -95 17v11q15 0 15 14q0 173 -37 396l-29 531v96zM109 1159q0 -32 22 -489q0 -85 36 -345q8 -63 8 -138v-31h3q37 52 70 110q-4 57 -4 87v93q0 55 4 79q-4 34 -4 86v86q0 300 -47 590q-3 0 -15 51q-5 0 -44 -96q-3 -1 -26 -42q0 -30 -3 -41zM175 108h3q21 0 26 -4 l128 7l136 -10q92 3 169 3h73q21 0 73 -6q44 59 59 89l-7 -3h-4q-50 0 -70 -4q-413 24 -506 52q-9 -27 -80 -114v-10z" />
<glyph unicode="m" horiz-adv-x="1446" d="M77 975v41q0 194 30 194q71 119 88 125q80 34 155 34h11q27 0 107 -121q71 -115 189 -243q48 -54 129 -163h4q87 126 159 190q0 8 95 136q44 86 102 167q0 19 76 19h76q20 0 23 -68l-4 -27q11 -128 11 -159v-220q8 -85 8 -91v-144q-8 -55 -8 -57q0 -68 -4 -186 q4 -59 4 -87q-5 -64 -11 -64q4 -34 11 -42q0 -13 -53 -72q-30 -52 -30 -57q-4 0 -31 -8q0 8 -7 8q-48 -4 -53 -4q-87 0 -87 49q-12 0 -12 12q0 107 12 201v15q0 5 -8 61v94q0 6 8 61v83q0 14 3 35q-3 8 -11 121l-174 -144q-61 -81 -95 -110q-17 -53 -87 -95h-4 q-156 128 -156 163q-3 0 -60 87q-65 62 -65 76h-4v-76q0 -110 -11 -261q4 -27 4 -31q-12 -28 -12 -41q0 -8 4 -8l-4 -26v-31q0 -64 19 -95q-5 -28 -68 -121q6 0 12 -11v-4q0 -9 -114 -19q-22 -7 -99 -19q-5 0 -19 15l4 38v15q-42 570 -53 865zM107 971q0 -16 8 -84 q0 -36 4 -216q22 -174 22 -345q8 -24 8 -30q4 -121 4 -140q7 -24 7 -31q8 0 42 80q0 51 4 83q-4 119 -4 152q0 74 4 205q-8 412 -15 572l4 38q-4 8 -4 12q4 7 4 11l-80 -114q-8 -64 -8 -72v-121zM164 72h4q159 21 159 34q0 8 42 72h-4q-112 -7 -148 -7q-19 -47 -53 -95v-4z M414 827q0 -7 122 -148q52 -106 170 -193q39 33 65 75q-69 102 -182 209l-175 178v-121zM1055 842l12 8l15 -8l26 68q-10 -5 -53 -64v-4zM1078 152h4q3 19 60 72q-3 93 -3 102q0 72 3 402q-7 161 -7 175h-4q0 -24 -23 -50q0 4 -4 4q-15 -37 -18 -68q3 -96 3 -152v-76 q-7 -36 -7 -41v-114q7 -37 7 -42v-41l-7 -46q0 -32 -4 -121v-4zM1093 114q58 -11 65 -11q72 9 72 11l49 64v4h-15q-31 0 -50 4q-23 -4 -53 -4h-7l-12 8q-9 -10 -49 -68v-8z" />
<glyph unicode="n" horiz-adv-x="1188" d="M84 1128q59 129 92 214q14 15 48 18q20 -3 30 -3q101 7 132 7q203 -321 203 -325q83 -104 185 -269h4q7 46 14 162l-3 23q7 48 7 129q0 36 -4 151q-5 0 -11 11q52 107 111 129q8 0 15 4q143 -11 143 -19l4 -18v-89q0 -39 26 -346v-52q-5 -435 -11 -435q4 -19 4 -45v-14 l-4 -22l7 -23l-3 -7q3 -6 3 -15q-18 -47 -73 -147q-38 -4 -59 -4h-67q-71 0 -88 37q-6 37 -218 332q-54 63 -89 136l-84 166v4h-4q-8 -87 -8 -140v-37q6 -417 34 -417v-4q0 -11 -56 -106q8 -2 8 -8v-4q-1 -7 -37 -18h-8q0 11 -143 22q0 8 -19 8q-18 -12 -26 -12 q-14 0 -33 174q4 99 4 158v67q0 48 -22 490q3 63 3 130q-7 0 -7 7zM110 995q11 -269 26 -457l-4 -19q4 -43 4 -62l-4 -52q4 -19 4 -22q-8 -76 -8 -89q0 -11 19 -158q4 0 48 96l-4 25q0 27 7 244q-11 254 -11 336v44q0 46 11 380q0 5 -7 40h-4q0 -31 -73 -162v-52 q0 -55 -4 -92zM180 143q0 -13 147 -26q19 12 56 81h-52q-53 0 -107 11q-27 0 -37 -44q-6 0 -7 -18v-4zM394 862q78 -136 151 -280q190 -242 269 -398h8l26 59q-56 63 -144 214q-226 288 -258 402q-42 78 -48 103h-4v-100zM792 744q28 -58 67 -114l14 11l-3 26v63l14 180v104 q-7 108 -7 118v132q0 30 -7 67q-44 -48 -63 -81q7 -90 7 -137q0 -230 -22 -369zM840 165h118q40 0 67 78q3 0 11 14h-4q-170 -10 -170 -40q-22 -41 -22 -52z" />
<glyph unicode="o" horiz-adv-x="1069" d="M98 614q0 146 83 422q114 232 123 243q61 84 158 84q32 18 112 27q78 0 242 -149q76 -86 126 -300q47 -225 47 -354v-19q0 -196 -155 -350q-59 -44 -133 -114q-97 -76 -195 -76h-40q-182 0 -314 278q-54 144 -54 308zM123 610q0 -321 191 -495q83 -60 152 -60h40 q101 0 198 87h-3q-61 -15 -119 -15h-4q-266 0 -357 236q-47 119 -47 350q0 94 54 353v4h-4q-65 -147 -75 -274q-26 -98 -26 -178v-8zM354 789q0 -101 58 -331q74 -110 144 -110q87 0 87 26q58 89 58 202q0 411 -199 502l-72 23q-52 -102 -54 -171q-22 -62 -22 -96v-45z M448 1124q79 0 173 -92q116 -162 116 -460q0 -76 -47 -194q73 51 101 148q25 98 25 164q0 151 -76 297q-137 175 -202 175h-7q-63 0 -76 -27z" />
<glyph unicode="p" horiz-adv-x="964" d="M91 1141q11 0 42 72q61 159 73 160q3 0 10 -4q47 11 233 28q133 -5 249 -64q136 -115 176 -236q3 -2 6 -84q-16 -140 -45 -180q-68 -72 -134 -104q-87 -100 -211 -132l-57 -12q-6 4 -13 4v-4q-3 -55 -3 -68q4 -332 22 -332v-4q-35 -91 -92 -160h-4q-6 0 -6 12 q-137 -4 -169 -4q-12 4 -13 4q-6 -4 -10 -4q-22 0 -22 132q-6 145 -16 620v16l3 24q-9 110 -19 320zM110 1121q10 -192 19 -292q-3 -44 -3 -76q0 -92 13 -344q-3 -54 -3 -80q0 -30 12 -256h4q17 58 57 128q-3 54 -3 80v100l-13 696l7 232v4h-4q-19 -63 -86 -192zM164 65 q0 -4 4 -4q10 -8 19 -8q62 0 131 8q5 -4 13 -4q30 0 51 60q4 0 19 32v4l-32 -4h-102q-34 0 -51 16zM417 1109q7 -200 9 -200l83 -12q46 0 71 124v16q0 61 -115 76h-16zM420 613q3 0 10 -4q148 36 207 96h-3q-54 -16 -176 -20q0 -4 -38 -8v-64zM426 1145h42q134 -16 134 -108 v-12q0 -44 -38 -112h3q89 39 89 84q10 9 10 28v20q0 102 -160 120q-8 0 -25 4q-31 -4 -55 -20v-4z" />
<glyph unicode="q" horiz-adv-x="1209" d="M63 528v57q0 164 83 382q9 68 91 227q74 125 246 181l49 8q71 0 227 -76q310 -248 310 -597v-42q0 -104 -49 -219q140 -83 140 -114q-100 -128 -144 -230q-27 -40 -45 -42q0 4 -4 4l4 7q-85 63 -140 80q-73 -30 -193 -30h-102q-224 0 -401 177q-62 106 -72 227zM93 528 q0 -62 57 -193q54 -71 170 -132q121 -49 223 -49h121q163 0 163 45q21 16 53 64h-4q-85 -71 -249 -71q-283 0 -439 332q-57 170 -57 295h-4q-34 -133 -34 -242v-49zM309 778q0 -81 68 -235q37 -58 98 -75q68 -37 114 -49h7q17 19 42 87q91 84 136 94h8l11 -7h4q10 31 15 90 q0 128 -76 276q-101 146 -238 201q-54 -20 -76 -61q-76 -86 -106 -246q-7 -64 -7 -75zM577 1156q159 -75 239 -291q22 -119 22 -151v-61q0 -42 -26 -79q34 -27 49 -27q23 20 30 49q4 101 4 125q0 76 -98 299q-55 88 -163 125q-16 7 -53 15h-4v-4zM634 426h8l26 4q0 5 -23 23 q-11 -19 -11 -27zM835 184l83 -45q5 0 60 -42h4q7 1 45 83q-98 76 -124 76q-35 -59 -68 -72z" />
<glyph unicode="r" horiz-adv-x="971" d="M63 1172q78 193 116 193q37 7 44 7q188 4 193 4q223 0 334 -102q167 -90 167 -280v-3q0 -162 -203 -251v-4q50 -151 109 -385q0 -4 51 -113v-7q-50 -115 -91 -138l-120 7q0 -14 -8 -14h-7q-89 123 -145 392q-21 113 -37 113h-7q-31 0 -91 4q4 -311 15 -400 q-24 -80 -73 -128l4 -7v-3q0 -12 -51 -15q0 7 -7 7h-4q-31 0 -98 -3q-7 12 -7 21q0 4 3 11q-32 146 -51 535q-25 559 -36 559zM88 1165q19 -229 55 -901l22 -153q10 4 29 73l-4 18v69q-22 297 -36 1021v4h-4zM176 67l18 4h102q50 66 58 98h-4q-13 -7 -29 -7h-73 q-43 0 -43 -25q-29 -61 -29 -70zM365 1125q3 -49 3 -62q18 8 106 26q103 -5 127 -84l7 -18q0 -30 -29 -94q58 11 102 69q20 36 22 61q0 48 -66 102q-77 33 -134 33q-138 -25 -138 -33zM368 613q49 -4 73 -4h40q33 56 33 87q-13 0 -33 -3q-73 7 -109 7l-4 -7q4 -50 4 -69 q-4 -7 -4 -11zM372 863q43 4 62 4h40q77 0 98 69q11 18 11 47q0 71 -109 84q-45 -11 -102 -18v-186zM496 591q69 -269 94 -342l47 -109h4q15 8 47 80q-68 278 -127 404q-22 59 -22 72h-7q0 -36 -36 -105zM655 126q72 -11 102 -11h22q41 51 58 94h-3q-11 -3 -120 -14l-19 3 q0 -13 -36 -61q0 -4 -4 -11z" />
<glyph unicode="s" horiz-adv-x="852" d="M0 120q25 41 104 152q0 32 20 32l40 -4q237 35 304 92q76 73 76 92q-74 78 -156 104q-170 41 -272 156q-56 64 -56 288v36q0 130 156 268q93 72 204 72q0 7 52 12q49 0 68 -124q7 -19 20 -20v-4q-39 -148 -84 -148q-120 -37 -120 -64q-72 -70 -72 -120v-16 q17 -34 208 -44q143 -27 196 -76q100 -107 100 -240q0 -83 -52 -188q-17 -19 -60 -128q-92 -107 -156 -144q-109 -104 -324 -104h-4q-140 7 -140 28q0 28 -32 96q-5 -4 -20 -4zM36 140q30 -87 36 -88q20 21 56 80q-20 46 -20 108h-4q0 -7 -68 -100zM84 32q25 -12 120 -12 q192 0 304 104q160 118 160 168q-64 -52 -164 -96q-4 -10 -224 -76q0 -4 -8 -4l-36 4q-48 -8 -72 -8q-3 0 -24 4q-10 -28 -56 -84zM88 876q16 -86 52 -120q77 -97 264 -144q67 -23 156 -104h4q20 49 20 56q0 67 -164 112q-106 28 -248 104q-70 55 -80 100h-4v-4zM244 1004 l12 -48h4q0 58 112 156q51 28 116 44q32 60 32 80q-8 4 -12 4q0 -9 -84 -32q-172 -121 -172 -188q-3 -16 -8 -16z" />
<glyph unicode="t" horiz-adv-x="1125" d="M42 1135q68 133 88 183q-4 6 -4 14q4 10 24 10q19 -14 32 -14q438 -13 540 -13q38 -7 60 -7h4q78 0 216 -3q40 -10 40 -34q0 -55 24 -146v-3q-70 -84 -84 -112q-23 0 -28 -4q-8 4 -12 4q-102 -14 -204 -14h-20q0 -155 12 -257v-251q-8 -82 -8 -92v-118q0 -12 16 -27 q0 -12 -64 -112q4 -6 4 -14q0 -4 -40 -20q0 17 -92 17h-76q-21 0 -28 17q-24 0 -24 108v421q0 5 -8 81v234l-28 3q-44 0 -132 4l-48 -4q-83 8 -132 17q0 -5 -12 -10q-12 3 -12 20v102zM66 1037h4l72 102l-4 13q8 26 8 48q0 45 -8 81h-4q-34 -82 -68 -129v-115zM78 1017 q48 -7 132 -11q4 0 32 4q100 -4 184 -4h8q0 8 68 82h-68q-147 13 -284 20q0 4 -8 4q-64 -88 -64 -95zM434 979q0 -30 4 -50q4 -329 4 -546v-163q8 -33 8 -37v-20h4q6 0 48 88v3q0 102 4 132q-4 85 -4 170q0 176 12 251v13q0 73 4 136q-4 29 -4 108zM482 156q12 0 12 -14h84 q21 0 68 -3l52 91h-4q-85 -6 -96 -6q-4 0 -12 3q-22 -3 -36 -3h-36zM718 1017h44l188 17h16q46 45 60 74h-4q-48 -2 -48 -7q-40 4 -60 4h-120q-70 -7 -72 -7v-75z" />
<glyph unicode="u" horiz-adv-x="1034" d="M83 1079v24q0 14 4 36l-4 8q0 14 128 244q0 -5 20 -16h20q120 0 120 -28q0 -4 4 -12q-4 -35 -4 -44q32 -447 80 -716q50 -216 108 -216q0 -4 12 -4q80 20 80 52q12 57 12 132q0 229 -64 648l-12 -8q-8 0 -8 8q13 24 88 132q18 43 28 44h4q8 -1 8 -8q41 20 152 20 q28 -28 28 -44q32 -542 32 -736q0 -199 -88 -300q-31 -129 -148 -252q-60 -36 -144 -36q-204 0 -356 252q-40 83 -76 332q-15 189 -24 488zM107 1163q20 -647 60 -744q10 -119 104 -244q135 -140 268 -140q128 0 176 88q72 100 72 132q-119 -88 -276 -88q-219 0 -264 296 q-20 106 -48 576v264q-48 -81 -92 -140zM619 1199q36 -132 72 -648l-12 -136h4q42 0 56 232q0 100 -52 652h-4q0 -12 -64 -100z" />
<glyph unicode="v" horiz-adv-x="1069" d="M49 1141q0 28 96 204q10 0 27 16l17 -12l150 8q7 -4 11 -4l7 4q34 0 34 -28q0 -8 -7 -8q29 -89 65 -368q28 -133 68 -212q0 -10 45 -180h3l96 540q11 83 17 100h3l10 -8q95 109 137 180h7l20 -12q28 10 28 12q113 0 113 -52q3 0 3 -12q-17 -110 -38 -132 q-30 -294 -106 -568q-61 -240 -61 -288q0 -37 -55 -160q0 -20 -65 -140h-3q7 -13 7 -20q-11 -8 -21 -8h-3q-28 0 -62 8l-51 -8q-75 4 -106 8q0 -8 -7 -8h-3q-16 0 -27 84q-168 625 -168 628q-41 121 -92 252q-62 181 -62 204q-21 -28 -24 -28zM87 1185q5 -52 109 -324 q58 -155 137 -460q10 0 61 -228q18 -98 31 -104q28 61 55 100q-38 75 -86 272q-44 150 -219 800q-7 9 -20 72h-7q-61 -123 -61 -128zM432 29q17 -8 61 -8h45q15 0 54 8q32 -8 52 -8h3q5 0 62 120h-4q-112 4 -174 4l-21 4q-25 0 -61 -92q-6 0 -17 -28zM579 497 q24 -93 24 -108h13q8 6 28 132q13 38 95 476l65 288q-113 -134 -113 -148q-23 -178 -112 -640z" />
<glyph unicode="w" horiz-adv-x="1593" d="M62 1117v16q70 179 84 196q0 14 84 28q35 -4 40 -4q50 8 60 8t112 -364q0 -21 136 -472q24 -55 24 -60q124 160 184 268q15 12 28 12l12 -8l148 12l84 -100h4q0 22 96 316l76 292q19 2 80 84q33 23 52 48q0 -9 156 -16l12 -16q0 -202 -132 -784q4 -8 4 -12 q-128 -315 -128 -400q-64 -93 -112 -140q-114 12 -132 12h-8q-82 92 -184 404h-8q-42 -85 -200 -300q-44 -97 -64 -108q-16 0 -120 20q0 -8 -8 -8h-4q-13 0 -72 148q-80 222 -168 412q-104 444 -128 508q-8 0 -8 8zM86 1129q35 -83 76 -280q16 -36 72 -276q67 -120 180 -440 q6 -1 16 -32q7 0 32 68q-76 360 -192 688q-28 75 -120 420h-4q-17 -59 -60 -148zM454 77q11 0 104 -24l72 128h-4q-140 -16 -140 -24zM850 457q20 -27 132 -308q44 -65 44 -76q28 16 28 20q-8 0 -8 8v8q37 50 40 72q-193 356 -200 356zM1066 61q40 -8 96 -12l92 120h-4 q-61 -16 -116 -16h-12q-5 0 -56 -92zM1078 617q58 -88 72 -128h8q0 23 96 336q0 79 116 536h-4q-124 -112 -124 -160q-64 -271 -156 -548q0 -6 -8 -36z" />
<glyph unicode="x" horiz-adv-x="1132" d="M56 1195q18 41 71 120l-4 9q0 9 13 9l213 18q157 -256 240 -354l93 244q118 138 133 138h134q24 0 35 -23v-5q-10 -42 -129 -322q-43 -129 -93 -239q-4 -8 -4 -23q53 -72 137 -249q191 -291 191 -303q0 -7 18 -33q-76 -124 -111 -124h-93q-36 0 -85 5q-6 -5 -26 -5 q-161 331 -205 378q-74 -98 -119 -212q-9 0 -9 -32q9 -2 9 -10v-4l-85 -111q0 -18 -13 -18h-22q-227 16 -227 28v9q0 9 13 9q-13 15 -13 23q0 25 67 170q37 115 58 115q51 87 150 332q-8 31 -119 216q-67 86 -218 244zM87 1213q0 -6 187 -202q60 -86 137 -226l9 -4 q56 27 71 27v5q-161 263 -324 460l-13 28q-44 -64 -67 -88zM149 95q62 0 178 -14h18q23 0 66 74q7 0 14 14h-5q-17 0 -186 -5q-74 -64 -85 -64v-5zM163 141q80 68 80 92q188 399 199 442l58 106h-4q-80 -20 -80 -60q-80 -188 -191 -423q0 -12 -54 -129zM602 969l9 -4 q24 56 124 239q0 15 45 106v5h-5q0 -18 -75 -79v-18q0 -26 -31 -78q-36 -102 -67 -171zM607 459q89 -130 195 -359h4q19 1 58 78q5 0 5 4q-9 31 -214 382q-48 -88 -48 -105zM855 100q2 -10 9 -10h98q52 0 71 42l31 41v5h-22q-10 0 -18 -5q-4 0 -4 5l-31 -5h-89z" />
<glyph unicode="y" horiz-adv-x="1125" d="M41 1104v4q0 34 64 192q110 62 160 67h8q215 -338 332 -484h4q176 219 292 467q28 42 32 42q144 -48 144 -58v-13q-26 -129 -208 -363q-172 -259 -172 -297v-46q8 -106 8 -125v-271l8 -13v-8q-45 -78 -84 -117q0 -21 -24 -21q-28 -4 -80 -4h-52q-29 0 -44 25q8 0 8 8v13 q-28 0 -28 33q0 19 4 25q-4 70 -4 109v67q0 22 4 37q-4 22 -4 42v146h-4l-12 -8l-4 8q16 7 16 29q-13 11 -60 113q-78 115 -252 330q-40 71 -52 71zM69 1137q0 -38 196 -271q139 -179 152 -246h4l64 121q-11 21 -72 92q-73 131 -248 334q-44 65 -44 79h-4q-17 -57 -48 -109z M437 265q4 -77 4 -130q8 0 8 -12h8q0 7 32 54q8 151 8 259v259h-4q-25 -58 -56 -96v-17q0 -127 4 -221q-4 -66 -4 -96zM461 94q4 0 4 -5l8 5l12 -9h20q34 0 108 4q0 5 60 101h-4q-172 0 -172 -42q-15 -27 -36 -54z" />
<glyph unicode="z" horiz-adv-x="1153" d="M21 1211q122 120 160 120h16q99 -12 116 -12q59 4 104 4q188 -28 444 -56q36 0 48 -4q16 4 28 4q19 0 40 -4q27 4 44 4q82 -1 92 -28v-8q0 -14 -104 -160q-101 -167 -280 -356q-68 -135 -220 -292h44q31 0 56 -4q22 4 36 4q80 -8 180 -12q7 0 48 4q62 -4 144 -4l12 -16 v-68q0 -40 16 -104v-8q-85 -131 -100 -136q-17 0 -36 -16h-12v8q-57 -4 -292 -8q-344 12 -524 40l-8 12v8q24 21 68 144q120 158 184 268q7 0 120 144q173 197 260 312h-112q-29 0 -344 40q-204 9 -204 40zM49 1203q16 -104 16 -132q108 80 108 100q12 117 12 140 q-48 -22 -136 -108zM105 1071q216 -12 472 -48h108l48 -4q0 7 64 72v4h-148q-111 0 -476 40q0 -6 -68 -64zM109 127h4l512 -24q324 0 324 36q16 16 40 52l-40 4q-63 0 -252 12q-108 0 -516 4q-71 -72 -72 -84zM153 223q6 0 16 16v16h-4q-12 -29 -12 -32z" />
<glyph unicode="{" horiz-adv-x="894" d="M63 488v92q0 29 4 69q-4 7 -4 15q0 16 100 55q80 64 80 157q0 43 -36 301v25q0 284 264 399q109 26 148 26q28 -13 28 -33q-10 -209 -32 -209q-22 -69 -44 -69q-75 -29 -148 -147q-4 -3 -8 -47l44 -308q0 -72 -64 -125q-40 -17 -40 -25v-7q0 -5 64 -37l60 -92v-55 q0 -79 -4 -216q0 -69 56 -146q0 -15 136 -62q140 -18 140 -48v-48l4 -22q-4 -6 -4 -18v-11l4 -26l12 8h4v-4q0 -29 -20 -51l4 -7q-32 -60 -68 -70q0 -5 -12 -11h-12q-8 0 -8 11h-20q-22 0 -56 -4l-8 4q-10 -4 -40 -7q-54 3 -92 3h-32q-64 0 -172 55q-124 86 -124 381v99 q0 149 -100 198zM79 495q108 -68 108 -175v-107q0 -311 116 -395q114 -51 180 -51q248 0 248 18l40 59q0 -8 -212 -11q-151 32 -224 113q-76 46 -76 385q-19 140 -68 208q-40 66 -112 96v-48q0 -29 4 -77q-4 -6 -4 -15zM435 1224h4q23 50 140 121l36 77h-4q-106 0 -176 -194 v-4z" />
<glyph unicode="|" horiz-adv-x="545" d="M83 1518q24 69 116 180q86 -4 128 -4h8q52 0 52 -36q52 -486 52 -804v-212l-4 -24q16 -126 20 -368q4 0 4 -12q-4 -189 -4 -296v-136q0 -73 -100 -180l-8 -4q-176 0 -176 24q-24 8 -24 36q0 40 -4 96l4 20q-20 590 -36 860q-15 164 -24 384q16 145 16 180v12 q0 35 -20 284zM99 1510q24 -239 24 -296l-16 -176l40 -660q5 -316 12 -316q0 -4 -4 -4q7 -93 12 -264l-4 -28q4 -29 4 -72v-12q4 0 52 80q0 9 -4 44q16 671 28 792q-16 397 -40 784q0 44 4 132q-5 148 -20 148q-55 -79 -88 -152zM195 -330v-4q19 -12 144 -20q73 87 84 124 q-81 -28 -108 -28q-14 0 -36 4q-44 -3 -44 -8q0 -8 -40 -68z" />
<glyph unicode="}" horiz-adv-x="922" d="M42 -121q7 26 80 107h8l8 -3q70 29 84 29h4l-4 -7h4q52 0 116 44q12 36 12 48l-16 -15h-4q32 37 32 85v52q-18 0 -20 204q21 104 68 151q3 0 20 26q-48 19 -72 81q-32 86 -32 126q0 71 48 303v12q0 59 -56 133q-46 35 -108 48q-8 -4 -12 -4q-14 0 -28 111q-6 0 -12 11v7 q129 169 148 178q116 -7 212 -59q184 -131 184 -366v-37l-32 -278v-14q0 -155 160 -200l12 -19q0 -25 -84 -70q-108 -121 -108 -370q0 -251 -100 -314q-10 0 -116 -107q-76 -48 -180 -48q-63 3 -140 18q-11 -22 -28 -22q-4 6 -4 15l-8 -4h-12q-5 0 -20 22v104zM66 -114 q8 -53 8 -125v-8h4q21 2 52 74q0 8 -4 8l4 26v99q-40 -31 -64 -74zM130 -243q109 -11 124 -11q126 0 188 66q-38 -11 -76 -18q-166 0 -220 15v-11zM186 1428q28 -71 28 -107h4q0 6 48 67q28 40 28 63q0 14 -8 100zM230 1318q47 0 116 -60q47 -67 52 -125v-34 q-44 -214 -44 -262v-45q37 -170 84 -170l8 -7q4 0 4 4q4 0 12 -4q75 5 104 15q0 8 -56 44q-44 43 -44 111q0 17 40 311q0 124 -100 262q-19 23 -100 48q0 4 -4 4q-52 -74 -72 -92zM366 419q4 -38 4 -59v-82q24 -25 24 -122q-8 -63 -20 -96h4q72 56 72 215q-4 77 -8 77l4 26 v111q27 66 68 111l-28 -4h-24q-78 -73 -96 -177z" />
<glyph unicode="~" d="M-7 699q50 116 68 136q8 0 76 83q73 54 139 54q123 0 234 -119q45 -31 68 -32h3q76 69 76 118q116 47 129 47q28 0 72 -57q64 -51 64 -72q-69 -198 -186 -259q-68 -24 -158 -39h-43q-53 0 -201 122q-42 25 -68 25h-15q-87 -29 -140 -108q-5 -14 -25 -14l-7 11q4 6 4 14 q-66 73 -90 90zM15 703q2 0 82 -83q27 38 40 72q-34 27 -65 86l-14 11h-4q0 -18 -39 -86zM147 670q73 58 115 58q62 0 201 -119q42 -21 50 -21v7q-42 23 -79 57q-99 119 -165 119h-7q-32 0 -93 -72q-15 0 -22 -29zM621 825h4q86 0 132 125v4h-3q-47 -25 -76 -33 q0 -32 -57 -96z" />
<glyph unicode="&#xa1;" horiz-adv-x="672" />
<glyph unicode="&#xa2;" horiz-adv-x="1139" />
<glyph unicode="&#xa3;" horiz-adv-x="1167" d="M84 853l116 104h8q4 0 4 -4q6 5 40 8h88q0 128 128 304q135 108 324 108q92 -12 92 -32q0 -12 4 -12l-16 -128q8 -1 8 -8v-8q-67 -120 -80 -120q-152 -28 -152 -52q-42 -37 -52 -60h88q48 0 64 -60q4 -36 8 -36l-4 -20v-32l8 -28q0 -18 -76 -112l-40 4h-40 q20 -98 20 -176q-12 -110 -92 -220q-6 0 -16 -16q96 -8 284 -40q192 0 240 52l24 4q20 -10 20 -32v-12q0 -128 20 -128v-8q-34 -216 -88 -216q-34 -24 -92 -24h-92q-47 0 -244 60q-73 15 -220 28q-73 0 -236 -52q0 -6 -16 -16h-4q-20 11 -20 64v72q0 97 100 260 q84 196 84 324l-4 40h-4l-12 -8q-8 0 -8 12h-20q-136 9 -136 28l4 28v64q0 44 -12 96zM112 845q12 -41 12 -112v-28h4q0 9 64 88v12q0 7 -12 96zM120 9v-92l80 96l-4 20q0 57 160 332q28 87 28 180q0 46 -24 192l-64 -76l4 -8v-8q0 -8 -12 -8l12 -56q0 -194 -152 -448 q-28 -83 -28 -124zM140 673q63 -8 84 -8h52q15 29 52 76v4h-80q-10 0 -48 12q-40 -48 -60 -84zM160 -75h4q150 40 208 40q183 -12 284 -44q124 -44 200 -44h52q120 0 120 56q16 16 32 84q-27 -48 -188 -48h-72q-75 0 -336 60q-142 16 -160 16q-74 0 -144 -120zM520 949h40 q63 140 228 140h4q4 0 48 72v4q-21 4 -80 8q-87 -14 -188 -96q-52 -55 -52 -116v-12zM584 749l16 -60l56 4l20 -4l40 64l-20 -4h-112z" />
<glyph unicode="&#xa4;" d="M122 413l118 117q-32 46 -48 103q-12 42 -12 84q0 44 13 87q16 55 47 99l-118 118l80 81l118 -118q44 30 99 46q44 14 89 14q41 0 83 -12q57 -17 102 -48l118 118l80 -81l-117 -117q31 -46 48 -102q12 -42 12 -85q0 -42 -12 -85q-17 -56 -48 -102l117 -117l-80 -81 l-118 118q-45 -32 -101 -48q-42 -12 -85 -12q-42 0 -85 12q-57 16 -102 48l-118 -118zM284 716q0 -28 9 -56q16 -59 57 -100q41 -40 99 -57q29 -8 58 -8t58 8q58 17 99 57q40 41 57 99q9 29 9 58t-9 58q-17 58 -57 99q-41 40 -100 57q-29 8 -58 8t-58 -9q-58 -17 -98 -56 q-39 -40 -56 -98q-10 -30 -10 -60z" />
<glyph unicode="&#xa5;" horiz-adv-x="1262" d="M8 1176q0 19 10.5 27.5t32.5 8.5q27 0 123 -8t164 -8h88q33 0 41 -6.5t8 -26.5q0 -8 -15 -14t-38 -6q-6 0 -18.5 2t-18.5 2q-24 0 -37.5 -9.5t-13.5 -25.5q0 -18 16.5 -52t46.5 -77l158 -221q13 -19 33 -53q41 -70 71 -70q9 0 16.5 5t14.5 15l277 396q8 12 13 26.5 t5 24.5q0 18 -10 27t-37 14q-15 2 -41 4q-47 3 -47 25q0 15 8 22.5t25 7.5q3 0 15 -1q56 -7 108 -7h139q30 0 65 1t37 1q11 0 18.5 -4.5t8.5 -11.5q0 -28 -38 -34q-18 -3 -27 -5q-63 -15 -147 -117q-7 -9 -12 -15l-169 -206h323q15 0 24 -6t9 -17q0 -15 -6 -20.5t-23 -5.5 h-366q-46 -57 -96.5 -112.5t-52.5 -59.5h511q18 0 25.5 -5.5t7.5 -17.5q0 -14 -7 -21t-22 -7h-530q0 -11 -1 -30.5t-1 -29.5l2 -215q0 -114 5.5 -150t20.5 -44q30 -17 107.5 -19t77.5 -31q0 -12 -10 -20t-25 -8q-2 0 -35.5 4t-64.5 4q-91 0 -208.5 -4t-142.5 -4q-31 0 -40 4 t-9 16t8 18.5t37 12.5q9 2 25 5q74 16 92 32q17 13 24 47t7 102l-2 242q0 19 -1.5 35t-4.5 32l-484 1q-14 0 -21 6.5t-7 19.5t6.5 19t21.5 6h467l-121 172h-344q-17 0 -23.5 5.5t-6.5 18.5q0 14 6 19.5t22 5.5h307q-43 57 -108 155q-131 197 -227 197q-7 0 -13 5.5t-6 11.5z " />
<glyph unicode="&#xa6;" d="M427 371h160v-789h-160v789zM427 789v789h160v-789h-160z" />
<glyph unicode="&#xa7;" d="M170 1130q0 148 89 237q82 79 216 86q8 1 17 1h3q66 0 163 -16.5t97 -41.5v-194h-51q-5 81 -80 132q-70 47 -149 51h-15q-78 0 -125 -44.5t-47 -117.5q0 -132 287 -269q149 -67 204.5 -143.5t55.5 -187.5q0 -171 -101 -282q-47 -39 -99 -64q108 -56 154 -118 q55 -77 55 -187q0 -171 -101 -283q-124 -102 -277 -105v1q-6 -1 -13 -1h-3q-66 0 -163 16.5t-97 41.5v194h51q5 -81 80 -132q68 -45 145 -50q113 6 185 69q72 64 72 165q0 125 -316 276q-123 64 -175.5 137t-52.5 177q0 148 89 237q67 65 170 82l-40 19q-123 64 -175.5 137 t-52.5 177zM297 571q0 -123 248 -250q56 16 97 53q73 65 73 166q0 5 -1 10h-2q-1 14 -4 27q-22 61 -113 127q-59 29 -126 29q-78 0 -125 -44.5t-47 -117.5z" />
<glyph unicode="&#xa8;" horiz-adv-x="1024" d="M209 1263q0 13 14 26l71 72q13 12 25 12q11 0 27 -14l69 -73q10 -14 10 -25q0 -13 -12 -27l-69 -75q-17 -17 -25 -17q-14 0 -25 12l-76 86q-9 12 -9 23zM574 1263q0 13 14 26l71 72q13 12 25 12q11 0 27 -13l69 -74q10 -14 10 -25q0 -13 -12 -26l-69 -76q-17 -17 -25 -17 q-14 0 -25 12l-76 87q-9 11 -9 22z" />
<glyph unicode="&#xa9;" horiz-adv-x="1674" d="M100 718q0 148 55.5 283t159.5 238q102 104 238.5 160.5t286.5 56.5q145 0 280 -56.5t239 -160.5q102 -101 158.5 -238t56.5 -283q0 -147 -56.5 -282t-162.5 -240q-105 -105 -239 -159.5t-283 -54.5q-146 0 -278 55.5t-238 160.5q-106 104 -161.5 237.5t-55.5 282.5z M160 718q0 -137 51 -259t148 -219q98 -96 219 -147t256 -51q137 0 259.5 50.5t219.5 145.5q97 98 149 221.5t52 258.5q0 134 -52 259.5t-145 219.5q-96 96 -220 147.5t-258 51.5q-137 0 -262 -51.5t-220 -147.5t-146 -219.5t-51 -259.5zM351 719q0 126 65.5 244t187.5 184.5 t254 66.5q38 0 75 -6.5t76 -20.5q5 -1 9 -1q19 0 26 30h42l72 -198h-44q-52 94 -131 124q-72 26 -147 26h-15q-86 -8 -166.5 -71t-121.5 -177q-33 -90 -33 -184q0 -25 2 -50q11 -121 69.5 -224t149.5 -152q72 -40 166 -42q124 0 194 56t70 126h53v-100q0 -46 -96.5 -86.5 t-242.5 -40.5q-142 0 -264 68t-186 185t-64 243z" />
<glyph unicode="&#xaa;" horiz-adv-x="648" />
<glyph unicode="&#xab;" horiz-adv-x="944" d="M174 479l342 303h14v-37l-205 -266l205 -266v-37h-14zM487 479l342 303h14v-37l-205 -266l205 -266v-37h-14z" />
<glyph unicode="&#xac;" d="M87 667v100h840v-491l-1 -1h-98v392h-741z" />
<glyph unicode="&#xad;" horiz-adv-x="670" d="M28 462q9 101 9 122l-4 23q82 151 165 151l48 -6q213 12 270 12l19 12q80 -12 80 -35q-4 -58 -9 -58l4 -29q0 -146 -23 -146q-70 -104 -105 -104q-4 0 -4 6l-10 -6q-55 0 -75 -6q-46 6 -90 6h-34l-28 6q-9 -6 -14 -6q-194 0 -194 40q-5 12 -5 18zM52 450q55 87 61 87 l-5 24q0 33 10 116q-62 -64 -62 -70v-11q0 -50 -4 -146zM75 444l33 -5q11 0 19 5q135 -11 299 -11q75 11 80 11q0 -5 5 -5l42 75q-47 -6 -71 -6h-99q-37 0 -66 -5l-185 11q-44 -64 -57 -64v-6z" />
<glyph unicode="&#xae;" horiz-adv-x="1674" d="M100 718q0 148 55.5 283t159.5 238q102 104 238.5 160.5t286.5 56.5q145 0 280 -56.5t239 -160.5q102 -101 158.5 -238t56.5 -283q0 -147 -56.5 -282t-162.5 -240q-105 -105 -239 -159.5t-283 -54.5q-146 0 -278 55.5t-238 160.5q-106 104 -161.5 237.5t-55.5 282.5z M160 718q0 -137 51 -259t148 -219q98 -96 219 -147t256 -51q137 0 259.5 50.5t219.5 145.5q97 98 149 221.5t52 258.5q0 134 -52 259.5t-145 219.5q-96 96 -220 147.5t-258 51.5q-137 0 -262 -51.5t-220 -147.5t-146 -219.5t-51 -259.5zM524 269v50h43q37 0 37 121v538 q0 121 -37 121h-43v70h356q64 -1 125 -42q60 -41 92.5 -114t32.5 -152q0 -78 -32 -150.5t-114 -134.5l82 -116q100 -141 150 -141h34v-50h-346v50h45q30 0 30 22q0 29 -69 114l-75 102q-42 0 -84 42v-159q0 -121 36 -121h53v-50h-316zM751 725l3 -8q23 -56 56 -81 q29 -22 56 -22h6q31 4 61.5 38.5t46.5 97.5q13 50 13 103q0 13 -1 27q-4 67 -28 124.5t-56.5 76t-63.5 18.5h-93v-374z" />
<glyph unicode="&#xaf;" horiz-adv-x="670" />
<glyph unicode="&#xb0;" horiz-adv-x="674" d="M60 1164q0 116 81.5 197t197.5 81q115 0 196 -81.5t81 -196.5q0 -114 -82 -196t-197 -82q-117 0 -197 81t-80 197zM130 1163q0 -87 61 -147t148 -60t147 60t60 147t-60.5 148t-146.5 61t-147.5 -61t-61.5 -148z" />
<glyph unicode="&#xb1;" />
<glyph unicode="&#xb2;" />
<glyph unicode="&#xb3;" />
<glyph unicode="&#xb4;" horiz-adv-x="1024" d="M316 1078l291 297q35 35 55.5 47t40.5 12q33 0 53.5 -20t20.5 -51q0 -22 -15.5 -42t-46.5 -40l-330 -203h-69z" />
<glyph unicode="&#xb5;" horiz-adv-x="1180" />
<glyph unicode="&#xb6;" horiz-adv-x="1024" d="M93 1086q0 157 107.5 253t285.5 96h443v-70h-127v-1365h-82v1365h-166v-1365h-84v738q-174 8 -275.5 102.5t-101.5 245.5z" />
<glyph unicode="&#xb7;" horiz-adv-x="508" d="M129 709q0 15 16 31l82 84q15 14 29 14q13 0 31 -16l80 -86q12 -16 12 -29q0 -15 -14 -31l-80 -88q-20 -20 -29 -20q-16 0 -29 14l-88 101q-10 13 -10 26z" />
<glyph unicode="&#xb8;" horiz-adv-x="1024" d="M360 -290q85 -52 152 -52q66 0 94.5 21.5t28.5 66.5t-49 64q-40 16 -102 16q-16 0 -34 -2l48 176h63l-37 -104q32 4 62 5q86 0 134 -40.5t48 -113.5q0 -76 -58.5 -120.5t-160.5 -44.5q-109 0 -189 32v96z" />
<glyph unicode="&#xb9;" />
<glyph unicode="&#xba;" horiz-adv-x="718" />
<glyph unicode="&#xbb;" horiz-adv-x="944" d="M101 176v37l205 266l-205 266v37h14l342 -303l-342 -303h-14zM414 176v37l205 266l-205 266v37h14l342 -303l-342 -303h-14z" />
<glyph unicode="&#xbc;" horiz-adv-x="1708" />
<glyph unicode="&#xbd;" horiz-adv-x="1964" />
<glyph unicode="&#xbe;" horiz-adv-x="1708" />
<glyph unicode="&#xbf;" horiz-adv-x="748" />
<glyph unicode="&#xc0;" horiz-adv-x="1540" />
<glyph unicode="&#xc1;" horiz-adv-x="1540" />
<glyph unicode="&#xc2;" horiz-adv-x="1540" />
<glyph unicode="&#xc3;" horiz-adv-x="1540" />
<glyph unicode="&#xc4;" horiz-adv-x="1540" />
<glyph unicode="&#xc5;" horiz-adv-x="1540" />
<glyph unicode="&#xc6;" horiz-adv-x="2118" />
<glyph unicode="&#xc7;" horiz-adv-x="1399" />
<glyph unicode="&#xc8;" horiz-adv-x="1151" />
<glyph unicode="&#xc9;" horiz-adv-x="1132" d="M77 1215q54 81 124 146l18 11q476 7 581 25q80 0 164 -11h80q18 -8 18 -36v-33q0 -47 -11 -88q11 0 11 -7q-3 -39 -95 -153q0 -18 -14 -18q-222 -25 -498 -44q0 -4 -25 -7q3 -92 3 -135v-14h4q140 33 425 47h18q84 0 84 -29q0 -19 7 -113q0 -69 -43 -109q0 -9 -44 -55 q-5 -44 -44 -44q-114 -3 -152 -10q-183 -4 -229 -4l-26 4v-124q1 -8 7 -8h197q12 0 18 4l22 -4h87q226 -10 243 -18q19 0 19 -171q7 -1 7 -7v-7q-39 -54 -91 -102q7 -2 7 -8v-3q0 -30 -200 -40q0 -4 -7 -4q-557 -7 -581 -7q-7 -4 -15 -4q-12 0 -33 233v146l-18 302 q0 95 -3 382v4h-4v-11h-7l3 26v54q0 19 -7 44zM102 1226l15 -124q4 -313 4 -404q7 -46 18 -284v-142q0 -49 22 -190q48 73 54 91q-11 3 -11 30v294q0 66 7 84l-7 62q7 58 7 146q-14 206 -14 422q7 70 7 99v18h-3q-48 -39 -99 -102zM175 60h73q79 0 116 8l7 -4q7 4 15 4v-4 q7 4 11 4q92 0 334 3q148 13 160 22q34 16 95 88v3h-66q-26 0 -40 8q-39 -8 -363 -30h-109q-20 0 -87 8q-91 -7 -91 -15q-31 -43 -55 -95zM279 1443v3q88 119 341 186q289 63 364 94q11 -1 11 -6q-6 -73 -6 -82q0 -5 17 -35q-77 -137 -252 -137q-282 -34 -391 -34h-67z M329 1455h17q142 6 392 34q124 0 173 63h-6q-50 -14 -363 -49l-39 3h-39q-24 0 -62 -3l-22 6zM422 1124q8 -53 8 -58v-44q33 17 381 40q28 6 117 18h25l73 102h-4q-28 0 -51 4q-199 -21 -469 -29q-80 -6 -80 -15v-18zM433 556q351 14 415 22l-4 18q19 0 69 84q13 0 18 14v4 q-109 -11 -451 -58q-29 0 -47 -4v-80z" />
<glyph unicode="&#xca;" horiz-adv-x="1151" />
<glyph unicode="&#xcb;" horiz-adv-x="1151" />
<glyph unicode="&#xcc;" horiz-adv-x="657" />
<glyph unicode="&#xcd;" horiz-adv-x="657" />
<glyph unicode="&#xce;" horiz-adv-x="657" />
<glyph unicode="&#xcf;" horiz-adv-x="657" />
<glyph unicode="&#xd0;" horiz-adv-x="1518" />
<glyph unicode="&#xd1;" horiz-adv-x="1554" />
<glyph unicode="&#xd2;" horiz-adv-x="1614" />
<glyph unicode="&#xd3;" horiz-adv-x="1614" />
<glyph unicode="&#xd4;" horiz-adv-x="1614" />
<glyph unicode="&#xd5;" horiz-adv-x="1614" />
<glyph unicode="&#xd6;" horiz-adv-x="1614" />
<glyph unicode="&#xd7;" d="M161 470l247 247l-247 248l99 98l247 -247l248 247l98 -99l-247 -247l247 -247l-99 -99l-247 247l-247 -247z" />
<glyph unicode="&#xd8;" horiz-adv-x="1614" />
<glyph unicode="&#xd9;" horiz-adv-x="1501" />
<glyph unicode="&#xda;" horiz-adv-x="1501" />
<glyph unicode="&#xdb;" horiz-adv-x="1501" />
<glyph unicode="&#xdc;" horiz-adv-x="1501" />
<glyph unicode="&#xdd;" horiz-adv-x="1233" />
<glyph unicode="&#xde;" horiz-adv-x="1120" />
<glyph unicode="&#xdf;" horiz-adv-x="1251" />
<glyph unicode="&#xe0;" horiz-adv-x="922" />
<glyph unicode="&#xe1;" horiz-adv-x="922" />
<glyph unicode="&#xe2;" horiz-adv-x="922" />
<glyph unicode="&#xe3;" horiz-adv-x="922" />
<glyph unicode="&#xe4;" horiz-adv-x="922" />
<glyph unicode="&#xe5;" horiz-adv-x="922" />
<glyph unicode="&#xe6;" horiz-adv-x="1454" />
<glyph unicode="&#xe7;" horiz-adv-x="905" />
<glyph unicode="&#xe8;" horiz-adv-x="909" />
<glyph unicode="&#xe9;" horiz-adv-x="909" />
<glyph unicode="&#xea;" horiz-adv-x="909" />
<glyph unicode="&#xeb;" horiz-adv-x="909" />
<glyph unicode="&#xec;" horiz-adv-x="514" />
<glyph unicode="&#xed;" horiz-adv-x="514" />
<glyph unicode="&#xee;" horiz-adv-x="514" />
<glyph unicode="&#xef;" horiz-adv-x="514" />
<glyph unicode="&#xf0;" horiz-adv-x="1139" />
<glyph unicode="&#xf1;" horiz-adv-x="1188" d="M84 957q59 108 92 179q14 12 48 15q20 -3 30 -3q101 6 132 6q203 -268 203 -271q83 -88 185 -225h4q7 38 14 136l-3 18q7 40 7 108q0 31 -4 127q-5 0 -11 9q52 89 111 108q8 0 15 3q143 -9 143 -16l4 -15v-74q0 -33 26 -290v-43q-5 -364 -11 -364q4 -16 4 -37v-13l-4 -18 l7 -19l-3 -6q3 -5 3 -12q-18 -40 -73 -124q-38 -3 -59 -3h-67q-71 0 -88 31q-6 31 -218 278q-54 53 -89 114l-84 139v3h-4q-8 -73 -8 -117v-31q6 -349 34 -349v-3q0 -9 -56 -89q8 -1 8 -6v-4q-1 -6 -37 -15h-8q0 9 -143 19q0 6 -19 6q-18 -10 -26 -10q-14 0 -33 145 q4 83 4 133v56q0 40 -22 410q3 53 3 108q-7 0 -7 6zM105 1269q50 86 68 101q8 0 76 61q73 39 139 39q123 0 234 -87q45 -23 68 -24h3q76 51 76 88q116 34 129 34q28 0 72 -42q64 -38 64 -53q-69 -147 -186 -191q-68 -18 -158 -29h-43q-53 0 -201 90q-42 19 -68 19h-15 q-87 -22 -140 -80q-5 -10 -25 -10l-7 7q4 5 4 11q-66 54 -90 66zM110 846q11 -225 26 -383l-4 -15q4 -36 4 -52l-4 -44q4 -16 4 -18q-8 -63 -8 -74q0 -10 19 -133q4 0 48 80l-4 22q0 22 7 204q-11 212 -11 280v37q0 39 11 318q0 4 -7 34h-4q0 -26 -73 -136v-43q0 -46 -4 -77 zM127 1272q2 0 82 -61q27 28 40 53q-34 20 -65 63l-14 8h-4q0 -13 -39 -63zM180 133q0 -11 147 -21q19 10 56 68h-52q-53 0 -107 9q-27 0 -37 -37q-6 0 -7 -16v-3zM259 1248q73 42 115 42q62 0 201 -87q42 -16 50 -16v5q-42 17 -79 43q-99 87 -165 87h-7q-32 0 -93 -53 q-15 0 -22 -21zM394 735q78 -114 151 -235q190 -202 269 -333h8l26 50q-56 52 -144 179q-226 241 -258 336q-42 66 -48 86h-4v-83zM733 1362h4q86 0 132 93v2h-3q-47 -18 -76 -24q0 -23 -57 -71zM792 636q28 -49 67 -95l14 9l-3 21v53l14 151v86q-7 91 -7 99v111q0 25 -7 56 q-44 -40 -63 -68q7 -75 7 -114q0 -193 -22 -309zM840 152h118q40 0 67 65q3 0 11 12h-4q-170 -9 -170 -34q-22 -34 -22 -43z" />
<glyph unicode="&#xf2;" horiz-adv-x="1010" />
<glyph unicode="&#xf3;" horiz-adv-x="1010" />
<glyph unicode="&#xf4;" horiz-adv-x="1010" />
<glyph unicode="&#xf5;" horiz-adv-x="1010" />
<glyph unicode="&#xf6;" horiz-adv-x="1010" />
<glyph unicode="&#xf7;" d="M87 647v140h839l1 -1v-139h-840zM382 377q0 15 16 31l82 84q15 14 29 14q13 0 31 -16l80 -86q12 -16 12 -29q0 -15 -14 -31l-80 -88q-20 -20 -29 -20q-16 0 -29 14l-88 101q-10 13 -10 26zM382 1070q0 15 16 31l82 84q15 14 29 14q13 0 31 -16l80 -86q12 -16 12 -29 q0 -15 -14 -31l-80 -88q-20 -20 -29 -20q-16 0 -29 14l-88 101q-10 13 -10 26z" />
<glyph unicode="&#xf8;" horiz-adv-x="1010" />
<glyph unicode="&#xf9;" horiz-adv-x="1059" />
<glyph unicode="&#xfa;" horiz-adv-x="1059" />
<glyph unicode="&#xfb;" horiz-adv-x="1059" />
<glyph unicode="&#xfc;" horiz-adv-x="1059" />
<glyph unicode="&#xfd;" horiz-adv-x="868" />
<glyph unicode="&#xfe;" horiz-adv-x="1010" />
<glyph unicode="&#xff;" horiz-adv-x="868" />
<glyph unicode="&#x2c6;" horiz-adv-x="1024" d="M221 1079l232 355h118l232 -355h-58l-233 216l-233 -216h-58z" />
<glyph unicode="&#x2dc;" horiz-adv-x="1024" d="M234 1132q19 106 68 158.5t129 52.5q46 -1 113 -24q64 -23 112 -23h4q36 0 58 20t36 66h54q-20 -103 -68.5 -154t-126.5 -51h-4q-50 0 -113 23q-66 24 -114 24q-39 0 -60.5 -20.5t-33.5 -71.5h-54z" />
<glyph unicode="&#x2000;" horiz-adv-x="863" />
<glyph unicode="&#x2001;" horiz-adv-x="1726" />
<glyph unicode="&#x2002;" horiz-adv-x="863" />
<glyph unicode="&#x2003;" horiz-adv-x="1726" />
<glyph unicode="&#x2004;" horiz-adv-x="575" />
<glyph unicode="&#x2005;" horiz-adv-x="431" />
<glyph unicode="&#x2006;" horiz-adv-x="287" />
<glyph unicode="&#x2007;" horiz-adv-x="287" />
<glyph unicode="&#x2008;" horiz-adv-x="215" />
<glyph unicode="&#x2009;" horiz-adv-x="345" />
<glyph unicode="&#x200a;" horiz-adv-x="95" />
<glyph unicode="&#x2010;" horiz-adv-x="670" d="M28 462q9 101 9 122l-4 23q82 151 165 151l48 -6q213 12 270 12l19 12q80 -12 80 -35q-4 -58 -9 -58l4 -29q0 -146 -23 -146q-70 -104 -105 -104q-4 0 -4 6l-10 -6q-55 0 -75 -6q-46 6 -90 6h-34l-28 6q-9 -6 -14 -6q-194 0 -194 40q-5 12 -5 18zM52 450q55 87 61 87 l-5 24q0 33 10 116q-62 -64 -62 -70v-11q0 -50 -4 -146zM75 444l33 -5q11 0 19 5q135 -11 299 -11q75 11 80 11q0 -5 5 -5l42 75q-47 -6 -71 -6h-99q-37 0 -66 -5l-185 11q-44 -64 -57 -64v-6z" />
<glyph unicode="&#x2011;" horiz-adv-x="670" d="M28 462q9 101 9 122l-4 23q82 151 165 151l48 -6q213 12 270 12l19 12q80 -12 80 -35q-4 -58 -9 -58l4 -29q0 -146 -23 -146q-70 -104 -105 -104q-4 0 -4 6l-10 -6q-55 0 -75 -6q-46 6 -90 6h-34l-28 6q-9 -6 -14 -6q-194 0 -194 40q-5 12 -5 18zM52 450q55 87 61 87 l-5 24q0 33 10 116q-62 -64 -62 -70v-11q0 -50 -4 -146zM75 444l33 -5q11 0 19 5q135 -11 299 -11q75 11 80 11q0 -5 5 -5l42 75q-47 -6 -71 -6h-99q-37 0 -66 -5l-185 11q-44 -64 -57 -64v-6z" />
<glyph unicode="&#x2012;" horiz-adv-x="670" d="M28 462q9 101 9 122l-4 23q82 151 165 151l48 -6q213 12 270 12l19 12q80 -12 80 -35q-4 -58 -9 -58l4 -29q0 -146 -23 -146q-70 -104 -105 -104q-4 0 -4 6l-10 -6q-55 0 -75 -6q-46 6 -90 6h-34l-28 6q-9 -6 -14 -6q-194 0 -194 40q-5 12 -5 18zM52 450q55 87 61 87 l-5 24q0 33 10 116q-62 -64 -62 -70v-11q0 -50 -4 -146zM75 444l33 -5q11 0 19 5q135 -11 299 -11q75 11 80 11q0 -5 5 -5l42 75q-47 -6 -71 -6h-99q-37 0 -66 -5l-185 11q-44 -64 -57 -64v-6z" />
<glyph unicode="&#x2013;" horiz-adv-x="1108" d="M56 513v27q27 37 85 137l9 6h3q8 0 17 -6q70 19 290 29q85 16 169 23q21 -3 151 -7q93 7 145 7q21 0 142 -3q23 -9 23 -17v-13q-6 -23 -6 -26q-3 -104 -3 -121q6 0 6 -9q-13 -35 -60 -102l3 -16q-5 -7 -48 -13v6q-101 -3 -117 -3l-3 -6q20 -4 23 -4v-6h-3q-13 0 -63 3 q-9 -7 -14 -7q-23 0 -45 4q-39 -4 -55 -4q-23 0 -54 4q-103 -7 -128 -7q-39 3 -48 3q-72 -9 -165 -16q-46 0 -149 3q-53 0 -77 -29h-11q-8 3 -8 20v143h-9zM79 540q3 -25 5 -138q4 0 9 -3q46 89 46 98v137h-3q-8 -29 -57 -94zM113 392h3q28 7 51 7h3q56 0 120 -3l185 19 q41 -3 45 -3q29 0 134 7q34 -4 49 -4q43 4 79 4v-4q36 13 106 20h37q24 0 77 3l51 79h-9q-164 -13 -390 -20q-156 -15 -433 -26h-71q0 -11 -37 -79z" />
<glyph unicode="&#x2014;" horiz-adv-x="2048" d="M-126 435v27q60 37 187 137l18 6h6q17 0 38 -6q154 19 634 29q185 16 367 23q47 -3 329 -7q204 7 317 7q46 0 311 -3q50 -9 50 -17v-13q-12 -23 -12 -26q-7 -104 -7 -121q13 0 13 -9q-30 -35 -131 -102l6 -16q-10 -7 -105 -13v6q-221 -3 -255 -3l-6 -6q44 -4 49 -4v-6h-6 q-28 0 -137 3q-20 -7 -31 -7q-51 0 -99 4q-85 -4 -118 -4q-50 0 -119 4q-224 -7 -279 -7q-85 3 -106 3q-157 -9 -361 -16q-98 0 -323 3q-116 0 -168 -29h-25q-18 3 -18 20v143h-19zM-76 462q6 -25 12 -138q7 0 19 -3q99 89 99 98v137h-6q-18 -29 -124 -94zM-2 314h7 q62 7 111 7h7q123 0 261 -3l404 19q90 -3 99 -3q62 0 293 7q73 -4 105 -4q95 4 175 4v-4q78 13 230 20h80q53 0 168 3l112 79h-18q-359 -13 -852 -20q-340 -15 -945 -26h-156q0 -11 -81 -79z" />
<glyph unicode="&#x2018;" horiz-adv-x="346" d="M49 1263q0 75 46 149q6 0 6 -6l40 6h11q161 0 161 -29v-23q0 -79 -98 -287q-19 0 -68 -80h-6q-46 0 -46 86q-35 165 -46 184zM72 1274q52 -195 52 -241h23q0 24 34 63q-20 31 -75 253l-11 6q-23 -70 -23 -81z" />
<glyph unicode="&#x2019;" horiz-adv-x="346" d="M49 1263q0 75 46 149q6 0 6 -6l40 6h11q161 0 161 -29v-23q0 -79 -98 -287q-19 0 -68 -80h-6q-46 0 -46 86q-35 165 -46 184zM72 1274q52 -195 52 -241h23q0 24 34 63q-20 31 -75 253l-11 6q-23 -70 -23 -81z" />
<glyph unicode="&#x201a;" horiz-adv-x="346" d="M56 -135q0 75 46 149q6 0 6 -6l40 6h11q161 0 161 -29v-23q0 -79 -98 -287q-19 0 -68 -80h-6q-46 0 -46 86q-35 165 -46 184zM79 -124q52 -195 52 -241h23q0 24 34 63q-20 31 -75 253l-11 6q-23 -70 -23 -81z" />
<glyph unicode="&#x201c;" horiz-adv-x="672" d="M98 1231q14 0 42 162q95 26 146 26q41 -8 41 -31q0 -128 -104 -308q-7 0 -52 -73h-5q-68 186 -68 224zM119 1226q16 -43 52 -167h10q2 21 11 21q-31 55 -47 193h-10q0 -12 -16 -47zM369 1268q0 68 42 135q5 0 5 -5l37 5h10q146 0 146 -26v-21q0 -71 -89 -260 q-17 0 -62 -73h-5q-42 0 -42 78q-31 150 -42 167zM390 1283q42 -164 52 -250h5q3 34 42 84q-18 28 -68 229l-10 5z" />
<glyph unicode="&#x201d;" horiz-adv-x="672" d="M98 1231q14 0 42 162q95 26 146 26q41 -8 41 -31q0 -128 -104 -308q-7 0 -52 -73h-5q-68 186 -68 224zM119 1226q16 -43 52 -167h10q2 21 11 21q-31 55 -47 193h-10q0 -12 -16 -47zM369 1268q0 68 42 135q5 0 5 -5l37 5h10q146 0 146 -26v-21q0 -71 -89 -260 q-17 0 -62 -73h-5q-42 0 -42 78q-31 150 -42 167zM390 1283q42 -164 52 -250h5q3 34 42 84q-18 28 -68 229l-10 5z" />
<glyph unicode="&#x201e;" horiz-adv-x="910" d="M196 -301q26 38 52 194q119 33 182 33q52 -10 52 -39q0 -159 -130 -383q-10 0 -65 -91h-7q-84 227 -84 286zM222 -314q19 -55 65 -208l26 26q-39 68 -59 240h-13q0 -16 -19 -58zM533 -263q0 86 52 169q7 0 7 -6l45 6h13q182 0 182 -32v-26q0 -89 -110 -325q-22 0 -78 -91 h-7q-52 0 -52 98q-39 186 -52 207zM559 -250q59 -220 59 -272h26q0 27 39 71q-23 35 -85 286l-13 6q-26 -79 -26 -91z" />
<glyph unicode="&#x2022;" horiz-adv-x="1024" d="M216 718q0 123 87 209t210 86q122 0 208.5 -86.5t86.5 -208.5t-87.5 -209.5t-209.5 -87.5q-123 0 -209 87t-86 210z" />
<glyph unicode="&#x2026;" horiz-adv-x="2048" d="M129 136q0 15 16 31l82 84q15 14 29 14q13 0 31 -16l80 -86q12 -16 12 -29q0 -15 -14 -31l-80 -88q-20 -20 -29 -20q-16 0 -29 14l-88 101q-10 13 -10 26zM812 136q0 15 16 31l82 84q15 14 29 14q13 0 31 -16l80 -86q12 -16 12 -29q0 -15 -14 -31l-80 -88 q-20 -20 -29 -20q-16 0 -29 14l-88 101q-10 13 -10 26zM1495 136q0 15 16 31l82 84q15 14 29 14q13 0 31 -16l80 -86q12 -16 12 -29q0 -15 -14 -31l-80 -88q-20 -20 -29 -20q-16 0 -29 14l-88 101q-10 13 -10 26z" />
<glyph unicode="&#x202f;" horiz-adv-x="345" />
<glyph unicode="&#x2039;" horiz-adv-x="631" d="M174 479l342 303h14v-37l-205 -266l205 -266v-37h-14z" />
<glyph unicode="&#x203a;" horiz-adv-x="631" d="M101 176v37l205 266l-205 266v37h14l342 -303l-342 -303h-14z" />
<glyph unicode="&#x205f;" horiz-adv-x="431" />
<glyph unicode="&#x20ac;" horiz-adv-x="1195" d="M-7 575q0 40 21 60l64 120h3q27 0 117 -14q0 15 -3 39q3 55 3 81l-3 25h-22q-112 5 -116 14l-7 -3h-7q-13 0 -18 81v57l3 21q-3 6 -3 18v3q90 106 95 106h4v-3q19 7 39 7l18 -4q14 4 24 4q4 0 11 -4l18 4h102q79 120 234 226q54 26 134 78q138 71 358 71q95 -7 95 -46 q0 -2 4 -46q0 -106 -32 -134q-30 -71 -43 -75q-7 0 -7 7v7l4 7q-58 8 -96 8q-126 -8 -191 -25q-110 -36 -148 -89l-7 -10q134 -7 240 -18q19 4 21 4q64 0 64 -29q0 -166 -21 -166q-52 -85 -82 -92q-11 0 -17 3q-24 -3 -39 -3h-21q-200 14 -308 46q-32 -100 -32 -181v-3 q218 -7 276 -7q146 3 216 3q28 -9 28 -17q-7 -88 -7 -135h-4l4 -7v-10q-91 -114 -106 -114q-14 4 -14 14q-114 -7 -114 -10q-6 3 -10 3q-129 -14 -195 -14h-28v-3l64 -71q133 -120 307 -120h50q107 0 188 21q17 -6 17 -18q0 -97 -14 -187q4 -7 4 -11q0 -13 -78 -92 q-308 15 -506 53q-358 153 -358 449q-134 -4 -134 -14h-11q-8 0 -24 135h-4zM18 589q6 -79 17 -106q3 0 39 63q-3 36 -3 54v38q0 13 3 32q-3 5 -3 25h-4zM43 989q0 -25 7 -67q9 7 49 67v74q0 25 7 67q-3 7 -3 11h-4q0 -10 -56 -71v-3q0 -11 3 -11l-3 -18v-49zM46 465h4 q134 5 134 21q18 40 18 43h-4q-83 -7 -106 -14l-14 7zM71 911h3q93 -7 99 -7q19 3 22 3q5 -3 21 -3q0 2 53 78h-7q-38 0 -152 -4q0 -7 -39 -60v-7zM184 444q0 -70 43 -166q77 -152 293 -248q173 -38 492 -53q6 12 53 56h-7q-29 0 -226 -17q-176 0 -358 85q-255 170 -255 399 h-7q0 -16 -28 -56zM216 776q3 -30 3 -35h4q0 78 50 212v4h-4q-50 -81 -50 -92q-3 -44 -3 -89zM357 1183h43q85 131 110 160h-4q-149 -138 -149 -160zM460 522q15 -71 25 -71h18q79 0 360 32q0 3 43 53q-188 -25 -304 -25h-53q-40 0 -89 11zM485 925q198 -39 301 -39 q75 4 88 4l46 63l-35 -3h-46q-268 25 -319 25h-17q-18 -45 -18 -50zM768 1282h3q72 29 188 29q0 3 32 3q37 0 102 -14q25 47 25 53h-28q-17 0 -35 4q-193 -29 -262 -57q-17 -14 -25 -14v-4z" />
<glyph unicode="&#x2122;" horiz-adv-x="1497" />
<glyph unicode="&#x25fc;" horiz-adv-x="1380" d="M0 0v1380h1380v-1380h-1380z" />
</font>
</defs>
</svg>
