<svg xmlns="http://www.w3.org/2000/svg" width="53" height="46" viewBox="0 0 53 46">
  <defs>
    <style>
      .cls-1 {
        fill: #fff;
        fill-rule: evenodd;
      }
    </style>
  </defs>
  <path id="google_plus" data-name="google plus" class="cls-1" d="M1247,3186.21h-8.28v-8.16h-3.31v8.16h-8.29v3.34h8.29v8.16h3.31v-8.16H1247v-3.34Zm-29.63,18.18c-1.27-.89-3.68-3.05-3.68-4.31,0-1.49.42-2.22,2.68-3.97,2.31-1.79,4.1-4.1,4.1-7.03a8.575,8.575,0,0,0-4.66-7.8h4.43l3.13-3.28h-13.98c-6.27,0-12.17,5.02-12.17,10.47,0,5.58,4.28,10.23,10.65,10.23,0.45,0,.88.07,1.3,0.04a5.8,5.8,0,0,0-.71,2.63,5.425,5.425,0,0,0,1.9,3.85c-0.8,0-1.57.03-2.42,0.03-7.76,0-13.95,4.91-13.95,9.99,0,5.01,6.76,8.76,14.53,8.76,8.85,0,13.63-5.59,13.63-10.6C1222.15,3209.38,1221.06,3206.98,1217.37,3204.39Zm-7.47-6.95c-3.61-.1-7.03-3.99-7.65-8.68s1.79-8.28,5.39-8.18,7.18,3.87,7.81,8.56S1213.5,3197.55,1209.9,3197.44Zm-1.41,23.32c-5.37,0-9.24-2.95-9.24-7,0-3.97,4.8-7.27,10.17-7.21a11.692,11.692,0,0,1,3.48.55c2.91,2.01,5,3.15,5.59,5.44a6.15,6.15,0,0,1,.17,1.43C1218.66,3218.01,1216.03,3220.76,1208.49,3220.76Z" transform="translate(-1194 -3178)"/>
</svg>
