<svg xmlns="http://www.w3.org/2000/svg" width="53" height="53" viewBox="0 0 53 53">
  <defs>
    <style>
      .cls-1 {
        fill: #fff;
        fill-rule: evenodd;
      }
    </style>
  </defs>
  <path id="pinterest" class="cls-1" d="M1368.5,3176a26.5,26.5,0,0,0-10.49,50.84,23.388,23.388,0,0,1,.47-6.05c0.51-2.15,3.42-14.49,3.42-14.49a10.228,10.228,0,0,1-.85-4.21c0-3.93,2.29-6.88,5.13-6.88,2.42,0,3.59,1.82,3.59,4,0,2.43-1.55,6.06-2.35,9.43a4.116,4.116,0,0,0,4.2,5.12c5.04,0,8.43-6.47,8.43-14.14,0-5.82-3.92-10.19-11.07-10.19-8.06,0-13.09,6.02-13.09,12.74a7.663,7.663,0,0,0,1.75,5.21,1.283,1.283,0,0,1,.38,1.49c-0.13.49-.41,1.66-0.54,2.13a0.916,0.916,0,0,1-1.33.67c-3.71-1.52-5.45-5.59-5.45-10.16,0-7.56,6.38-16.62,19.01-16.62,10.16,0,16.84,7.35,16.84,15.24,0,10.43-5.8,18.22-14.35,18.22-2.87,0-5.57-1.55-6.49-3.31,0,0-1.55,6.12-1.88,7.31a22.263,22.263,0,0,1-2.63,5.63A26.5,26.5,0,1,0,1368.5,3176Z" transform="translate(-1342 -3176)"/>
</svg>
