<svg xmlns="http://www.w3.org/2000/svg" width="53.03" height="43" viewBox="0 0 53.03 43">
  <defs>
    <style>
      .cls-1 {
        fill: #fff;
        fill-rule: evenodd;
      }
    </style>
  </defs>
  <path id="twitter" class="cls-1" d="M1083.02,3186.17a19.1,19.1,0,0,1-6.07,1.71,11.6,11.6,0,0,0,4.56-5.93c-1.54.99-5.08,2.42-6.82,2.42h0a10.922,10.922,0,0,0-18.56,9.98h0a30.283,30.283,0,0,1-22.55-11.33,10.928,10.928,0,0,0,3.32,14.43c-1.29.09-3.66-.15-4.78-1.24-0.07,3.81,1.76,8.84,8.44,10.67-1.29.69-3.56,0.5-4.55,0.35,0.34,3.21,4.85,7.41,9.77,7.41-1.75,2.02-8.36,5.7-15.77,4.53a32.9,32.9,0,0,0,17.11,4.83,30.352,30.352,0,0,0,30.6-31.89v-0.35A19.012,19.012,0,0,0,1083.02,3186.17Z" transform="translate(-1030 -3181)"/>
</svg>
